%TF.GenerationSoftware,KiCad,Pcbnew,8.0.8*%
%TF.CreationDate,2025-02-03T13:00:51-08:00*%
%TF.ProjectId,ArduinoExpander,41726475-696e-46f4-9578-70616e646572,rev?*%
%TF.SameCoordinates,Original*%
%TF.FileFunction,Copper,L1,Top*%
%TF.FilePolarity,Positive*%
%FSLAX46Y46*%
G04 Gerber Fmt 4.6, Leading zero omitted, Abs format (unit mm)*
G04 Created by KiCad (PCBNEW 8.0.8) date 2025-02-03 13:00:51*
%MOMM*%
%LPD*%
G01*
G04 APERTURE LIST*
G04 Aperture macros list*
%AMRoundRect*
0 Rectangle with rounded corners*
0 $1 Rounding radius*
0 $2 $3 $4 $5 $6 $7 $8 $9 X,Y pos of 4 corners*
0 Add a 4 corners polygon primitive as box body*
4,1,4,$2,$3,$4,$5,$6,$7,$8,$9,$2,$3,0*
0 Add four circle primitives for the rounded corners*
1,1,$1+$1,$2,$3*
1,1,$1+$1,$4,$5*
1,1,$1+$1,$6,$7*
1,1,$1+$1,$8,$9*
0 Add four rect primitives between the rounded corners*
20,1,$1+$1,$2,$3,$4,$5,0*
20,1,$1+$1,$4,$5,$6,$7,0*
20,1,$1+$1,$6,$7,$8,$9,0*
20,1,$1+$1,$8,$9,$2,$3,0*%
G04 Aperture macros list end*
%TA.AperFunction,ComponentPad*%
%ADD10C,1.600000*%
%TD*%
%TA.AperFunction,SMDPad,CuDef*%
%ADD11RoundRect,0.243750X0.456250X-0.243750X0.456250X0.243750X-0.456250X0.243750X-0.456250X-0.243750X0*%
%TD*%
%TA.AperFunction,SMDPad,CuDef*%
%ADD12RoundRect,0.250000X-0.450000X0.262500X-0.450000X-0.262500X0.450000X-0.262500X0.450000X0.262500X0*%
%TD*%
%TA.AperFunction,ComponentPad*%
%ADD13O,1.727200X1.727200*%
%TD*%
%TA.AperFunction,ComponentPad*%
%ADD14R,1.727200X1.727200*%
%TD*%
%TA.AperFunction,ComponentPad*%
%ADD15R,1.700000X1.700000*%
%TD*%
%TA.AperFunction,ComponentPad*%
%ADD16O,1.700000X1.700000*%
%TD*%
%TA.AperFunction,ComponentPad*%
%ADD17R,1.600000X1.600000*%
%TD*%
%TA.AperFunction,ComponentPad*%
%ADD18O,1.600000X1.600000*%
%TD*%
%TA.AperFunction,ViaPad*%
%ADD19C,0.600000*%
%TD*%
%TA.AperFunction,Conductor*%
%ADD20C,1.000000*%
%TD*%
%TA.AperFunction,Conductor*%
%ADD21C,0.200000*%
%TD*%
G04 APERTURE END LIST*
D10*
%TO.P,C5,1*%
%TO.N,GND*%
X124968000Y-73580000D03*
%TO.P,C5,2*%
%TO.N,+5V*%
X124968000Y-68580000D03*
%TD*%
%TO.P,C1,1*%
%TO.N,GND*%
X64516000Y-77724000D03*
%TO.P,C1,2*%
%TO.N,+5V*%
X64516000Y-82724000D03*
%TD*%
D11*
%TO.P,D23,1,K*%
%TO.N,Net-(D23-K)*%
X104140000Y-91791000D03*
%TO.P,D23,2,A*%
%TO.N,Net-(D23-A)*%
X104140000Y-89916000D03*
%TD*%
D12*
%TO.P,R9,1*%
%TO.N,Net-(D9-K)*%
X87884000Y-71835000D03*
%TO.P,R9,2*%
%TO.N,GND*%
X87884000Y-73660000D03*
%TD*%
D11*
%TO.P,D5,1,K*%
%TO.N,Net-(D5-K)*%
X77724000Y-91684000D03*
%TO.P,D5,2,A*%
%TO.N,Net-(D5-A)*%
X77724000Y-89809000D03*
%TD*%
D12*
%TO.P,R3,1*%
%TO.N,Net-(D3-K)*%
X82804000Y-93415000D03*
%TO.P,R3,2*%
%TO.N,GND*%
X82804000Y-95240000D03*
%TD*%
%TO.P,R10,1*%
%TO.N,Net-(D10-K)*%
X85344000Y-71835000D03*
%TO.P,R10,2*%
%TO.N,GND*%
X85344000Y-73660000D03*
%TD*%
%TO.P,R22,1*%
%TO.N,Net-(D22-K)*%
X106680000Y-93472000D03*
%TO.P,R22,2*%
%TO.N,GND*%
X106680000Y-95297000D03*
%TD*%
%TO.P,R4,1*%
%TO.N,Net-(D4-K)*%
X80264000Y-93415000D03*
%TO.P,R4,2*%
%TO.N,GND*%
X80264000Y-95240000D03*
%TD*%
D11*
%TO.P,D18,1,K*%
%TO.N,Net-(D18-K)*%
X116840000Y-91791000D03*
%TO.P,D18,2,A*%
%TO.N,Net-(D18-A)*%
X116840000Y-89916000D03*
%TD*%
D10*
%TO.P,C2,1*%
%TO.N,GND*%
X64516000Y-55880000D03*
%TO.P,C2,2*%
%TO.N,+5V*%
X64516000Y-60880000D03*
%TD*%
D12*
%TO.P,R27,1*%
%TO.N,Net-(D27-K)*%
X114300000Y-71628000D03*
%TO.P,R27,2*%
%TO.N,GND*%
X114300000Y-73453000D03*
%TD*%
D11*
%TO.P,D29,2,A*%
%TO.N,Net-(D29-A)*%
X109220000Y-67965000D03*
%TO.P,D29,1,K*%
%TO.N,Net-(D29-K)*%
X109220000Y-69840000D03*
%TD*%
%TO.P,D22,1,K*%
%TO.N,Net-(D22-K)*%
X106680000Y-91791000D03*
%TO.P,D22,2,A*%
%TO.N,Net-(D22-A)*%
X106680000Y-89916000D03*
%TD*%
D12*
%TO.P,R26,1*%
%TO.N,Net-(D26-K)*%
X116840000Y-71628000D03*
%TO.P,R26,2*%
%TO.N,GND*%
X116840000Y-73453000D03*
%TD*%
%TO.P,R19,1*%
%TO.N,Net-(D19-K)*%
X114300000Y-93472000D03*
%TO.P,R19,2*%
%TO.N,GND*%
X114300000Y-95297000D03*
%TD*%
D13*
%TO.P,A1,VIN,VIN*%
%TO.N,/VIN*%
X106865200Y-97677437D03*
%TO.P,A1,SDA,SDA*%
%TO.N,/SDA*%
X82481200Y-49417437D03*
%TO.P,A1,SCL,SCL*%
%TO.N,/SCL*%
X79941200Y-49417437D03*
%TO.P,A1,RST1,RESET*%
%TO.N,/RST1*%
X94165200Y-97677437D03*
%TO.P,A1,IORF,IOREF*%
%TO.N,/IOREF*%
X91625200Y-97677437D03*
D14*
%TO.P,A1,GND3,GND*%
%TO.N,GND*%
X104325200Y-97677437D03*
%TO.P,A1,GND2,GND*%
X101785200Y-97677437D03*
%TO.P,A1,GND1,GND*%
X87561200Y-49417437D03*
D13*
%TO.P,A1,D13,D13*%
%TO.N,/LE_A_PIN*%
X90101200Y-49417437D03*
%TO.P,A1,D12,D12*%
%TO.N,/LE_B_PIN*%
X92641200Y-49417437D03*
%TO.P,A1,D11,D11*%
%TO.N,/OE_AB_PIN*%
X95181200Y-49417437D03*
%TO.P,A1,D10,D10_CS*%
%TO.N,/LE_D_PIN*%
X97721200Y-49417437D03*
%TO.P,A1,D9,D9*%
%TO.N,/DB7*%
X100261200Y-49417437D03*
%TO.P,A1,D8,D8*%
%TO.N,/DB6*%
X102801200Y-49417437D03*
%TO.P,A1,D7,D7*%
%TO.N,/DB5*%
X106865200Y-49417437D03*
%TO.P,A1,D6,D6*%
%TO.N,/DB4*%
X109405200Y-49417437D03*
%TO.P,A1,D5,D5*%
%TO.N,/DB3*%
X111945200Y-49417437D03*
%TO.P,A1,D4,D4*%
%TO.N,/DB2*%
X114485200Y-49417437D03*
%TO.P,A1,D3,D3_INT1*%
%TO.N,/DB1*%
X117025200Y-49417437D03*
%TO.P,A1,D2,D2_INT0*%
%TO.N,/DB0*%
X119565200Y-49417437D03*
%TO.P,A1,D1,D1/TX*%
%TO.N,/D1*%
X122105200Y-49417437D03*
%TO.P,A1,D0,D0/RX*%
%TO.N,/D0*%
X124645200Y-49417437D03*
%TO.P,A1,AREF,AREF*%
%TO.N,/AREF*%
X85021200Y-49417437D03*
%TO.P,A1,A5,A5*%
%TO.N,/CTRL_2*%
X124645200Y-97677437D03*
%TO.P,A1,A4,A4*%
%TO.N,/CTRL_1*%
X122105200Y-97677437D03*
%TO.P,A1,A3,A3*%
%TO.N,/CTRL_0*%
X119565200Y-97677437D03*
%TO.P,A1,A2,A2*%
%TO.N,/PIN19_C_PIN*%
X117025200Y-97677437D03*
%TO.P,A1,A1,A1*%
%TO.N,/PIN1_C_PIN*%
X114485200Y-97677437D03*
%TO.P,A1,A0,A0*%
%TO.N,/PIN1_D_PIN*%
X111945200Y-97677437D03*
%TO.P,A1,5V1,5V*%
%TO.N,+5V*%
X99245200Y-97677437D03*
%TO.P,A1,3V3,3.3V*%
%TO.N,+3.3V*%
X96705200Y-97677437D03*
%TO.P,A1,*%
%TO.N,*%
X89085200Y-97677437D03*
%TD*%
D11*
%TO.P,D6,1,K*%
%TO.N,Net-(D6-K)*%
X75184000Y-91684000D03*
%TO.P,D6,2,A*%
%TO.N,Net-(D6-A)*%
X75184000Y-89809000D03*
%TD*%
%TO.P,D7,1,K*%
%TO.N,Net-(D7-K)*%
X72644000Y-91684000D03*
%TO.P,D7,2,A*%
%TO.N,Net-(D7-A)*%
X72644000Y-89809000D03*
%TD*%
D15*
%TO.P,J3,1,Pin_1*%
%TO.N,+5V*%
X121920000Y-87112000D03*
D16*
%TO.P,J3,2,Pin_2*%
%TO.N,Net-(D17-A)*%
X119380000Y-87112000D03*
%TO.P,J3,3,Pin_3*%
%TO.N,Net-(D18-A)*%
X116840000Y-87112000D03*
%TO.P,J3,4,Pin_4*%
%TO.N,Net-(D19-A)*%
X114300000Y-87112000D03*
%TO.P,J3,5,Pin_5*%
%TO.N,Net-(D20-A)*%
X111760000Y-87112000D03*
%TO.P,J3,6,Pin_6*%
%TO.N,Net-(D21-A)*%
X109220000Y-87112000D03*
%TO.P,J3,7,Pin_7*%
%TO.N,Net-(D22-A)*%
X106680000Y-87112000D03*
%TO.P,J3,8,Pin_8*%
%TO.N,Net-(D23-A)*%
X104140000Y-87112000D03*
%TO.P,J3,9,Pin_9*%
%TO.N,Net-(D24-A)*%
X101600000Y-87112000D03*
%TO.P,J3,10,Pin_10*%
%TO.N,GND*%
X99060000Y-87112000D03*
%TD*%
D11*
%TO.P,D1,1,K*%
%TO.N,Net-(D1-K)*%
X87884000Y-91684000D03*
%TO.P,D1,2,A*%
%TO.N,Net-(D1-A)*%
X87884000Y-89809000D03*
%TD*%
D12*
%TO.P,R2,1*%
%TO.N,Net-(D2-K)*%
X85344000Y-93415000D03*
%TO.P,R2,2*%
%TO.N,GND*%
X85344000Y-95240000D03*
%TD*%
D11*
%TO.P,D28,2,A*%
%TO.N,Net-(D28-A)*%
X111760000Y-67965000D03*
%TO.P,D28,1,K*%
%TO.N,Net-(D28-K)*%
X111760000Y-69840000D03*
%TD*%
D17*
%TO.P,U1,1,OE*%
%TO.N,/OE_AB_PIN*%
X90424000Y-76200000D03*
D18*
%TO.P,U1,2,D0*%
%TO.N,/DB0*%
X87884000Y-76200000D03*
%TO.P,U1,3,D1*%
%TO.N,/DB1*%
X85344000Y-76200000D03*
%TO.P,U1,4,D2*%
%TO.N,/DB2*%
X82804000Y-76200000D03*
%TO.P,U1,5,D3*%
%TO.N,/DB3*%
X80264000Y-76200000D03*
%TO.P,U1,6,D4*%
%TO.N,/DB4*%
X77724000Y-76200000D03*
%TO.P,U1,7,D5*%
%TO.N,/DB5*%
X75184000Y-76200000D03*
%TO.P,U1,8,D6*%
%TO.N,/DB6*%
X72644000Y-76200000D03*
%TO.P,U1,9,D7*%
%TO.N,/DB7*%
X70104000Y-76200000D03*
%TO.P,U1,10,GND*%
%TO.N,GND*%
X67564000Y-76200000D03*
%TO.P,U1,11,Load*%
%TO.N,/LE_A_PIN*%
X67564000Y-83820000D03*
%TO.P,U1,12,Q7*%
%TO.N,Net-(D8-A)*%
X70104000Y-83820000D03*
%TO.P,U1,13,Q6*%
%TO.N,Net-(D7-A)*%
X72644000Y-83820000D03*
%TO.P,U1,14,Q5*%
%TO.N,Net-(D6-A)*%
X75184000Y-83820000D03*
%TO.P,U1,15,Q4*%
%TO.N,Net-(D5-A)*%
X77724000Y-83820000D03*
%TO.P,U1,16,Q3*%
%TO.N,Net-(D4-A)*%
X80264000Y-83820000D03*
%TO.P,U1,17,Q2*%
%TO.N,Net-(D3-A)*%
X82804000Y-83820000D03*
%TO.P,U1,18,Q1*%
%TO.N,Net-(D2-A)*%
X85344000Y-83820000D03*
%TO.P,U1,19,Q0*%
%TO.N,Net-(D1-A)*%
X87884000Y-83820000D03*
%TO.P,U1,20,VCC*%
%TO.N,+5V*%
X90424000Y-83820000D03*
%TD*%
D12*
%TO.P,R5,1*%
%TO.N,Net-(D5-K)*%
X77724000Y-93415000D03*
%TO.P,R5,2*%
%TO.N,GND*%
X77724000Y-95240000D03*
%TD*%
%TO.P,R20,1*%
%TO.N,Net-(D20-K)*%
X111760000Y-93472000D03*
%TO.P,R20,2*%
%TO.N,GND*%
X111760000Y-95297000D03*
%TD*%
D17*
%TO.P,U2,1,OE*%
%TO.N,/OE_AB_PIN*%
X90424000Y-54356000D03*
D18*
%TO.P,U2,2,D0*%
%TO.N,/DB0*%
X87884000Y-54356000D03*
%TO.P,U2,3,D1*%
%TO.N,/DB1*%
X85344000Y-54356000D03*
%TO.P,U2,4,D2*%
%TO.N,/DB2*%
X82804000Y-54356000D03*
%TO.P,U2,5,D3*%
%TO.N,/DB3*%
X80264000Y-54356000D03*
%TO.P,U2,6,D4*%
%TO.N,/DB4*%
X77724000Y-54356000D03*
%TO.P,U2,7,D5*%
%TO.N,/DB5*%
X75184000Y-54356000D03*
%TO.P,U2,8,D6*%
%TO.N,/DB6*%
X72644000Y-54356000D03*
%TO.P,U2,9,D7*%
%TO.N,/DB7*%
X70104000Y-54356000D03*
%TO.P,U2,10,GND*%
%TO.N,GND*%
X67564000Y-54356000D03*
%TO.P,U2,11,Load*%
%TO.N,/LE_B_PIN*%
X67564000Y-61976000D03*
%TO.P,U2,12,Q7*%
%TO.N,Net-(D16-A)*%
X70104000Y-61976000D03*
%TO.P,U2,13,Q6*%
%TO.N,Net-(D15-A)*%
X72644000Y-61976000D03*
%TO.P,U2,14,Q5*%
%TO.N,Net-(D14-A)*%
X75184000Y-61976000D03*
%TO.P,U2,15,Q4*%
%TO.N,Net-(D13-A)*%
X77724000Y-61976000D03*
%TO.P,U2,16,Q3*%
%TO.N,Net-(D12-A)*%
X80264000Y-61976000D03*
%TO.P,U2,17,Q2*%
%TO.N,Net-(D11-A)*%
X82804000Y-61976000D03*
%TO.P,U2,18,Q1*%
%TO.N,Net-(D10-A)*%
X85344000Y-61976000D03*
%TO.P,U2,19,Q0*%
%TO.N,Net-(D9-A)*%
X87884000Y-61976000D03*
%TO.P,U2,20,VCC*%
%TO.N,+5V*%
X90424000Y-61976000D03*
%TD*%
D12*
%TO.P,R30,1*%
%TO.N,Net-(D30-K)*%
X106680000Y-71628000D03*
%TO.P,R30,2*%
%TO.N,GND*%
X106680000Y-73453000D03*
%TD*%
D17*
%TO.P,U4,1,OE*%
%TO.N,/PIN1_D_PIN*%
X121920000Y-54356000D03*
D18*
%TO.P,U4,2,D0*%
%TO.N,/DB0*%
X119380000Y-54356000D03*
%TO.P,U4,3,D1*%
%TO.N,/DB1*%
X116840000Y-54356000D03*
%TO.P,U4,4,D2*%
%TO.N,/DB2*%
X114300000Y-54356000D03*
%TO.P,U4,5,D3*%
%TO.N,/DB3*%
X111760000Y-54356000D03*
%TO.P,U4,6,D4*%
%TO.N,/DB4*%
X109220000Y-54356000D03*
%TO.P,U4,7,D5*%
%TO.N,/DB5*%
X106680000Y-54356000D03*
%TO.P,U4,8,D6*%
%TO.N,/DB6*%
X104140000Y-54356000D03*
%TO.P,U4,9,D7*%
%TO.N,/DB7*%
X101600000Y-54356000D03*
%TO.P,U4,10,GND*%
%TO.N,GND*%
X99060000Y-54356000D03*
%TO.P,U4,11,Load*%
%TO.N,/LE_D_PIN*%
X99060000Y-61976000D03*
%TO.P,U4,12,Q7*%
%TO.N,Net-(D32-A)*%
X101600000Y-61976000D03*
%TO.P,U4,13,Q6*%
%TO.N,Net-(D31-A)*%
X104140000Y-61976000D03*
%TO.P,U4,14,Q5*%
%TO.N,Net-(D30-A)*%
X106680000Y-61976000D03*
%TO.P,U4,15,Q4*%
%TO.N,Net-(D29-A)*%
X109220000Y-61976000D03*
%TO.P,U4,16,Q3*%
%TO.N,Net-(D28-A)*%
X111760000Y-61976000D03*
%TO.P,U4,17,Q2*%
%TO.N,Net-(D27-A)*%
X114300000Y-61976000D03*
%TO.P,U4,18,Q1*%
%TO.N,Net-(D26-A)*%
X116840000Y-61976000D03*
%TO.P,U4,19,Q0*%
%TO.N,Net-(D25-A)*%
X119380000Y-61976000D03*
%TO.P,U4,20,VCC*%
%TO.N,+5V*%
X121920000Y-61976000D03*
%TD*%
D11*
%TO.P,D8,1,K*%
%TO.N,Net-(D8-K)*%
X70104000Y-91684000D03*
%TO.P,D8,2,A*%
%TO.N,Net-(D8-A)*%
X70104000Y-89809000D03*
%TD*%
D12*
%TO.P,R17,1*%
%TO.N,Net-(D17-K)*%
X119380000Y-93472000D03*
%TO.P,R17,2*%
%TO.N,GND*%
X119380000Y-95297000D03*
%TD*%
D11*
%TO.P,D13,1,K*%
%TO.N,Net-(D13-K)*%
X77724000Y-70104000D03*
%TO.P,D13,2,A*%
%TO.N,Net-(D13-A)*%
X77724000Y-68229000D03*
%TD*%
%TO.P,D30,2,A*%
%TO.N,Net-(D30-A)*%
X106680000Y-67965000D03*
%TO.P,D30,1,K*%
%TO.N,Net-(D30-K)*%
X106680000Y-69840000D03*
%TD*%
D15*
%TO.P,J2,1,Pin_1*%
%TO.N,+5V*%
X90424000Y-65532000D03*
D16*
%TO.P,J2,2,Pin_2*%
%TO.N,Net-(D9-A)*%
X87884000Y-65532000D03*
%TO.P,J2,3,Pin_3*%
%TO.N,Net-(D10-A)*%
X85344000Y-65532000D03*
%TO.P,J2,4,Pin_4*%
%TO.N,Net-(D11-A)*%
X82804000Y-65532000D03*
%TO.P,J2,5,Pin_5*%
%TO.N,Net-(D12-A)*%
X80264000Y-65532000D03*
%TO.P,J2,6,Pin_6*%
%TO.N,Net-(D13-A)*%
X77724000Y-65532000D03*
%TO.P,J2,7,Pin_7*%
%TO.N,Net-(D14-A)*%
X75184000Y-65532000D03*
%TO.P,J2,8,Pin_8*%
%TO.N,Net-(D15-A)*%
X72644000Y-65532000D03*
%TO.P,J2,9,Pin_9*%
%TO.N,Net-(D16-A)*%
X70104000Y-65532000D03*
%TO.P,J2,10,Pin_10*%
%TO.N,GND*%
X67564000Y-65532000D03*
%TD*%
D11*
%TO.P,D14,1,K*%
%TO.N,Net-(D14-K)*%
X75184000Y-70104000D03*
%TO.P,D14,2,A*%
%TO.N,Net-(D14-A)*%
X75184000Y-68229000D03*
%TD*%
%TO.P,D24,1,K*%
%TO.N,Net-(D24-K)*%
X101600000Y-91791000D03*
%TO.P,D24,2,A*%
%TO.N,Net-(D24-A)*%
X101600000Y-89916000D03*
%TD*%
D12*
%TO.P,R29,1*%
%TO.N,Net-(D29-K)*%
X109220000Y-71628000D03*
%TO.P,R29,2*%
%TO.N,GND*%
X109220000Y-73453000D03*
%TD*%
D10*
%TO.P,C3,1*%
%TO.N,GND*%
X96012000Y-55616000D03*
%TO.P,C3,2*%
%TO.N,+5V*%
X96012000Y-60616000D03*
%TD*%
D12*
%TO.P,R1,1*%
%TO.N,Net-(D1-K)*%
X87884000Y-93415000D03*
%TO.P,R1,2*%
%TO.N,GND*%
X87884000Y-95240000D03*
%TD*%
%TO.P,R13,1*%
%TO.N,Net-(D13-K)*%
X77724000Y-71835000D03*
%TO.P,R13,2*%
%TO.N,GND*%
X77724000Y-73660000D03*
%TD*%
D11*
%TO.P,D27,2,A*%
%TO.N,Net-(D27-A)*%
X114300000Y-67965000D03*
%TO.P,D27,1,K*%
%TO.N,Net-(D27-K)*%
X114300000Y-69840000D03*
%TD*%
D12*
%TO.P,R15,1*%
%TO.N,Net-(D15-K)*%
X72644000Y-71835000D03*
%TO.P,R15,2*%
%TO.N,GND*%
X72644000Y-73660000D03*
%TD*%
%TO.P,R7,1*%
%TO.N,Net-(D7-K)*%
X72644000Y-93415000D03*
%TO.P,R7,2*%
%TO.N,GND*%
X72644000Y-95240000D03*
%TD*%
D11*
%TO.P,D16,1,K*%
%TO.N,Net-(D16-K)*%
X70104000Y-70104000D03*
%TO.P,D16,2,A*%
%TO.N,Net-(D16-A)*%
X70104000Y-68229000D03*
%TD*%
%TO.P,D19,1,K*%
%TO.N,Net-(D19-K)*%
X114300000Y-91791000D03*
%TO.P,D19,2,A*%
%TO.N,Net-(D19-A)*%
X114300000Y-89916000D03*
%TD*%
%TO.P,D2,1,K*%
%TO.N,Net-(D2-K)*%
X85344000Y-91684000D03*
%TO.P,D2,2,A*%
%TO.N,Net-(D2-A)*%
X85344000Y-89809000D03*
%TD*%
D12*
%TO.P,R18,1*%
%TO.N,Net-(D18-K)*%
X116840000Y-93472000D03*
%TO.P,R18,2*%
%TO.N,GND*%
X116840000Y-95297000D03*
%TD*%
%TO.P,R12,1*%
%TO.N,Net-(D12-K)*%
X80264000Y-71835000D03*
%TO.P,R12,2*%
%TO.N,GND*%
X80264000Y-73660000D03*
%TD*%
%TO.P,R14,1*%
%TO.N,Net-(D14-K)*%
X75184000Y-71835000D03*
%TO.P,R14,2*%
%TO.N,GND*%
X75184000Y-73660000D03*
%TD*%
D11*
%TO.P,D17,1,K*%
%TO.N,Net-(D17-K)*%
X119380000Y-91791000D03*
%TO.P,D17,2,A*%
%TO.N,Net-(D17-A)*%
X119380000Y-89916000D03*
%TD*%
%TO.P,D25,1,K*%
%TO.N,Net-(D25-K)*%
X119380000Y-69840000D03*
%TO.P,D25,2,A*%
%TO.N,Net-(D25-A)*%
X119380000Y-67965000D03*
%TD*%
%TO.P,D21,1,K*%
%TO.N,Net-(D21-K)*%
X109220000Y-91791000D03*
%TO.P,D21,2,A*%
%TO.N,Net-(D21-A)*%
X109220000Y-89916000D03*
%TD*%
D12*
%TO.P,R31,1*%
%TO.N,Net-(D31-K)*%
X104140000Y-71628000D03*
%TO.P,R31,2*%
%TO.N,GND*%
X104140000Y-73453000D03*
%TD*%
%TO.P,R28,1*%
%TO.N,Net-(D28-K)*%
X111760000Y-71628000D03*
%TO.P,R28,2*%
%TO.N,GND*%
X111760000Y-73453000D03*
%TD*%
D11*
%TO.P,D26,2,A*%
%TO.N,Net-(D26-A)*%
X116840000Y-67965000D03*
%TO.P,D26,1,K*%
%TO.N,Net-(D26-K)*%
X116840000Y-69840000D03*
%TD*%
D12*
%TO.P,R16,1*%
%TO.N,Net-(D16-K)*%
X70104000Y-71835000D03*
%TO.P,R16,2*%
%TO.N,GND*%
X70104000Y-73660000D03*
%TD*%
%TO.P,R23,1*%
%TO.N,Net-(D23-K)*%
X104140000Y-93472000D03*
%TO.P,R23,2*%
%TO.N,GND*%
X104140000Y-95297000D03*
%TD*%
D11*
%TO.P,D11,1,K*%
%TO.N,Net-(D11-K)*%
X82804000Y-70104000D03*
%TO.P,D11,2,A*%
%TO.N,Net-(D11-A)*%
X82804000Y-68229000D03*
%TD*%
%TO.P,D15,2,A*%
%TO.N,Net-(D15-A)*%
X72644000Y-68229000D03*
%TO.P,D15,1,K*%
%TO.N,Net-(D15-K)*%
X72644000Y-70104000D03*
%TD*%
D10*
%TO.P,C4,1*%
%TO.N,GND*%
X96012000Y-77216000D03*
%TO.P,C4,2*%
%TO.N,+5V*%
X96012000Y-82216000D03*
%TD*%
D17*
%TO.P,U3,1,A->B*%
%TO.N,/PIN1_C_PIN*%
X121920000Y-75936000D03*
D18*
%TO.P,U3,2,A0*%
%TO.N,/DB0*%
X119380000Y-75936000D03*
%TO.P,U3,3,A1*%
%TO.N,/DB1*%
X116840000Y-75936000D03*
%TO.P,U3,4,A2*%
%TO.N,/DB2*%
X114300000Y-75936000D03*
%TO.P,U3,5,A3*%
%TO.N,/DB3*%
X111760000Y-75936000D03*
%TO.P,U3,6,A4*%
%TO.N,/DB4*%
X109220000Y-75936000D03*
%TO.P,U3,7,A5*%
%TO.N,/DB5*%
X106680000Y-75936000D03*
%TO.P,U3,8,A6*%
%TO.N,/DB6*%
X104140000Y-75936000D03*
%TO.P,U3,9,A7*%
%TO.N,/DB7*%
X101600000Y-75936000D03*
%TO.P,U3,10,GND*%
%TO.N,GND*%
X99060000Y-75936000D03*
%TO.P,U3,11,B7*%
%TO.N,Net-(D24-A)*%
X99060000Y-83556000D03*
%TO.P,U3,12,B6*%
%TO.N,Net-(D23-A)*%
X101600000Y-83556000D03*
%TO.P,U3,13,B5*%
%TO.N,Net-(D22-A)*%
X104140000Y-83556000D03*
%TO.P,U3,14,B4*%
%TO.N,Net-(D21-A)*%
X106680000Y-83556000D03*
%TO.P,U3,15,B3*%
%TO.N,Net-(D20-A)*%
X109220000Y-83556000D03*
%TO.P,U3,16,B2*%
%TO.N,Net-(D19-A)*%
X111760000Y-83556000D03*
%TO.P,U3,17,B1*%
%TO.N,Net-(D18-A)*%
X114300000Y-83556000D03*
%TO.P,U3,18,B0*%
%TO.N,Net-(D17-A)*%
X116840000Y-83556000D03*
%TO.P,U3,19,CE*%
%TO.N,/PIN19_C_PIN*%
X119380000Y-83556000D03*
%TO.P,U3,20,VCC*%
%TO.N,+5V*%
X121920000Y-83556000D03*
%TD*%
D15*
%TO.P,J4,1,Pin_1*%
%TO.N,+5V*%
X121920000Y-65268000D03*
D16*
%TO.P,J4,2,Pin_2*%
%TO.N,Net-(D25-A)*%
X119380000Y-65268000D03*
%TO.P,J4,3,Pin_3*%
%TO.N,Net-(D26-A)*%
X116840000Y-65268000D03*
%TO.P,J4,4,Pin_4*%
%TO.N,Net-(D27-A)*%
X114300000Y-65268000D03*
%TO.P,J4,5,Pin_5*%
%TO.N,Net-(D28-A)*%
X111760000Y-65268000D03*
%TO.P,J4,6,Pin_6*%
%TO.N,Net-(D29-A)*%
X109220000Y-65268000D03*
%TO.P,J4,7,Pin_7*%
%TO.N,Net-(D30-A)*%
X106680000Y-65268000D03*
%TO.P,J4,8,Pin_8*%
%TO.N,Net-(D31-A)*%
X104140000Y-65268000D03*
%TO.P,J4,9,Pin_9*%
%TO.N,Net-(D32-A)*%
X101600000Y-65268000D03*
%TO.P,J4,10,Pin_10*%
%TO.N,GND*%
X99060000Y-65268000D03*
%TD*%
D12*
%TO.P,R21,1*%
%TO.N,Net-(D21-K)*%
X109220000Y-93472000D03*
%TO.P,R21,2*%
%TO.N,GND*%
X109220000Y-95297000D03*
%TD*%
D11*
%TO.P,D9,1,K*%
%TO.N,Net-(D9-K)*%
X87884000Y-70104000D03*
%TO.P,D9,2,A*%
%TO.N,Net-(D9-A)*%
X87884000Y-68229000D03*
%TD*%
%TO.P,D12,1,K*%
%TO.N,Net-(D12-K)*%
X80264000Y-70104000D03*
%TO.P,D12,2,A*%
%TO.N,Net-(D12-A)*%
X80264000Y-68229000D03*
%TD*%
%TO.P,D4,1,K*%
%TO.N,Net-(D4-K)*%
X80264000Y-91684000D03*
%TO.P,D4,2,A*%
%TO.N,Net-(D4-A)*%
X80264000Y-89809000D03*
%TD*%
D12*
%TO.P,R6,1*%
%TO.N,Net-(D6-K)*%
X75184000Y-93415000D03*
%TO.P,R6,2*%
%TO.N,GND*%
X75184000Y-95240000D03*
%TD*%
D15*
%TO.P,J5,1,Pin_1*%
%TO.N,+5V*%
X128016000Y-68580000D03*
D16*
%TO.P,J5,2,Pin_2*%
%TO.N,/CTRL_0*%
X128016000Y-71120000D03*
%TO.P,J5,3,Pin_3*%
%TO.N,/CTRL_1*%
X128016000Y-73660000D03*
%TO.P,J5,4,Pin_4*%
%TO.N,/CTRL_2*%
X128016000Y-76200000D03*
%TO.P,J5,5,Pin_5*%
%TO.N,GND*%
X128016000Y-78740000D03*
%TD*%
D12*
%TO.P,R25,1*%
%TO.N,Net-(D25-K)*%
X119380000Y-71628000D03*
%TO.P,R25,2*%
%TO.N,GND*%
X119380000Y-73453000D03*
%TD*%
D11*
%TO.P,D3,1,K*%
%TO.N,Net-(D3-K)*%
X82804000Y-91684000D03*
%TO.P,D3,2,A*%
%TO.N,Net-(D3-A)*%
X82804000Y-89809000D03*
%TD*%
D12*
%TO.P,R32,1*%
%TO.N,Net-(D32-K)*%
X101600000Y-71628000D03*
%TO.P,R32,2*%
%TO.N,GND*%
X101600000Y-73453000D03*
%TD*%
%TO.P,R8,1*%
%TO.N,Net-(D8-K)*%
X70104000Y-93415000D03*
%TO.P,R8,2*%
%TO.N,GND*%
X70104000Y-95240000D03*
%TD*%
D11*
%TO.P,D20,1,K*%
%TO.N,Net-(D20-K)*%
X111760000Y-91791000D03*
%TO.P,D20,2,A*%
%TO.N,Net-(D20-A)*%
X111760000Y-89916000D03*
%TD*%
%TO.P,D10,1,K*%
%TO.N,Net-(D10-K)*%
X85344000Y-70104000D03*
%TO.P,D10,2,A*%
%TO.N,Net-(D10-A)*%
X85344000Y-68229000D03*
%TD*%
D15*
%TO.P,J1,1,Pin_1*%
%TO.N,+5V*%
X90424000Y-87112000D03*
D16*
%TO.P,J1,2,Pin_2*%
%TO.N,Net-(D1-A)*%
X87884000Y-87112000D03*
%TO.P,J1,3,Pin_3*%
%TO.N,Net-(D2-A)*%
X85344000Y-87112000D03*
%TO.P,J1,4,Pin_4*%
%TO.N,Net-(D3-A)*%
X82804000Y-87112000D03*
%TO.P,J1,5,Pin_5*%
%TO.N,Net-(D4-A)*%
X80264000Y-87112000D03*
%TO.P,J1,6,Pin_6*%
%TO.N,Net-(D5-A)*%
X77724000Y-87112000D03*
%TO.P,J1,7,Pin_7*%
%TO.N,Net-(D6-A)*%
X75184000Y-87112000D03*
%TO.P,J1,8,Pin_8*%
%TO.N,Net-(D7-A)*%
X72644000Y-87112000D03*
%TO.P,J1,9,Pin_9*%
%TO.N,Net-(D8-A)*%
X70104000Y-87112000D03*
%TO.P,J1,10,Pin_10*%
%TO.N,GND*%
X67564000Y-87112000D03*
%TD*%
D11*
%TO.P,D32,2,A*%
%TO.N,Net-(D32-A)*%
X101600000Y-67965000D03*
%TO.P,D32,1,K*%
%TO.N,Net-(D32-K)*%
X101600000Y-69840000D03*
%TD*%
D12*
%TO.P,R24,1*%
%TO.N,Net-(D24-K)*%
X101600000Y-93472000D03*
%TO.P,R24,2*%
%TO.N,GND*%
X101600000Y-95297000D03*
%TD*%
D11*
%TO.P,D31,2,A*%
%TO.N,Net-(D31-A)*%
X104140000Y-67965000D03*
%TO.P,D31,1,K*%
%TO.N,Net-(D31-K)*%
X104140000Y-69840000D03*
%TD*%
D12*
%TO.P,R11,1*%
%TO.N,Net-(D11-K)*%
X82804000Y-71835000D03*
%TO.P,R11,2*%
%TO.N,GND*%
X82804000Y-73660000D03*
%TD*%
D19*
%TO.N,/DB1*%
X84194000Y-59020000D03*
%TO.N,/DB2*%
X81548000Y-58674000D03*
%TO.N,/DB3*%
X79114000Y-58166000D03*
%TO.N,/DB4*%
X76454000Y-57658000D03*
%TO.N,/DB5*%
X73914000Y-57150000D03*
%TD*%
D20*
%TO.N,GND*%
X67564000Y-73660000D02*
X67564000Y-65532000D01*
D21*
X70104000Y-73660000D02*
X67564000Y-73660000D01*
D20*
X67564000Y-76200000D02*
X67564000Y-73660000D01*
D21*
X104140000Y-95504000D02*
X104325200Y-95689200D01*
X104325200Y-95689200D02*
X104325200Y-97677437D01*
X104140000Y-95297000D02*
X104140000Y-95504000D01*
D20*
X124968000Y-77724000D02*
X127000000Y-77724000D01*
X100848000Y-77724000D02*
X124968000Y-77724000D01*
X124968000Y-73580000D02*
X124968000Y-77724000D01*
%TO.N,+5V*%
X124968000Y-68580000D02*
X128016000Y-68580000D01*
X121920000Y-65532000D02*
X124968000Y-68580000D01*
X121920000Y-65268000D02*
X121920000Y-65532000D01*
D21*
%TO.N,/DB7*%
X72136000Y-52324000D02*
X70104000Y-54356000D01*
X97354637Y-52324000D02*
X72136000Y-52324000D01*
X100261200Y-49417437D02*
X97354637Y-52324000D01*
%TO.N,/DB6*%
X100838000Y-55626000D02*
X102870000Y-55626000D01*
X100330000Y-53594000D02*
X100330000Y-55118000D01*
X74168000Y-52832000D02*
X99568000Y-52832000D01*
X72644000Y-54356000D02*
X74168000Y-52832000D01*
X99568000Y-52832000D02*
X100330000Y-53594000D01*
X100330000Y-55118000D02*
X100838000Y-55626000D01*
X102870000Y-55626000D02*
X104140000Y-54356000D01*
D20*
%TO.N,GND*%
X70612000Y-51308000D02*
X67564000Y-54356000D01*
X85670637Y-51308000D02*
X70612000Y-51308000D01*
X87561200Y-49417437D02*
X85670637Y-51308000D01*
%TO.N,+5V*%
X99245200Y-95933200D02*
X99245200Y-97677437D01*
X90424000Y-87112000D02*
X99245200Y-95933200D01*
D21*
%TO.N,/DB1*%
X84356000Y-58928000D02*
X112268000Y-58928000D01*
X116840000Y-54356000D02*
X112268000Y-58928000D01*
%TO.N,/DB5*%
X74130000Y-56934000D02*
X104102000Y-56934000D01*
X73914000Y-57150000D02*
X74130000Y-56934000D01*
X104102000Y-56934000D02*
X106680000Y-54356000D01*
%TO.N,/DB4*%
X76454000Y-57658000D02*
X76708000Y-57404000D01*
X76708000Y-57404000D02*
X106172000Y-57404000D01*
X106172000Y-57404000D02*
X109220000Y-54356000D01*
%TO.N,/DB3*%
X79114000Y-58166000D02*
X79368000Y-57912000D01*
X79368000Y-57912000D02*
X108204000Y-57912000D01*
X108204000Y-57912000D02*
X111760000Y-54356000D01*
%TO.N,/DB2*%
X110236000Y-58420000D02*
X114300000Y-54356000D01*
X81802000Y-58420000D02*
X110236000Y-58420000D01*
X81548000Y-58674000D02*
X81802000Y-58420000D01*
D20*
%TO.N,GND*%
X127000000Y-77724000D02*
X128016000Y-78740000D01*
X99060000Y-75936000D02*
X100848000Y-77724000D01*
%TO.N,+5V*%
X96440000Y-81788000D02*
X96012000Y-82216000D01*
X120152000Y-81788000D02*
X96440000Y-81788000D01*
X121920000Y-83556000D02*
X120152000Y-81788000D01*
X96430000Y-60198000D02*
X120142000Y-60198000D01*
X120142000Y-60198000D02*
X121920000Y-61976000D01*
X96012000Y-60616000D02*
X96430000Y-60198000D01*
X88646000Y-60198000D02*
X65198000Y-60198000D01*
X65198000Y-60198000D02*
X64516000Y-60880000D01*
X90424000Y-61976000D02*
X88646000Y-60198000D01*
%TO.N,GND*%
X95494000Y-56134000D02*
X96012000Y-55616000D01*
X69342000Y-56134000D02*
X95494000Y-56134000D01*
X67564000Y-54356000D02*
X69342000Y-56134000D01*
%TO.N,+5V*%
X96012000Y-60616000D02*
X91784000Y-60616000D01*
X96012000Y-82216000D02*
X92028000Y-82216000D01*
%TO.N,GND*%
X95212001Y-78015999D02*
X96012000Y-77216000D01*
X69379999Y-78015999D02*
X95212001Y-78015999D01*
%TO.N,+5V*%
X92028000Y-82216000D02*
X90424000Y-83820000D01*
D21*
%TO.N,GND*%
X99361000Y-73453000D02*
X99060000Y-73152000D01*
X101600000Y-73453000D02*
X99361000Y-73453000D01*
D20*
X99060000Y-73152000D02*
X99060000Y-65268000D01*
X99060000Y-75936000D02*
X99060000Y-73152000D01*
%TO.N,+5V*%
X65315999Y-81924001D02*
X64516000Y-82724000D01*
X88528001Y-81924001D02*
X65315999Y-81924001D01*
X90424000Y-83820000D02*
X88528001Y-81924001D01*
%TO.N,GND*%
X67564000Y-76200000D02*
X69379999Y-78015999D01*
%TO.N,+5V*%
X90424000Y-61976000D02*
X90424000Y-65532000D01*
%TO.N,GND*%
X66040000Y-55880000D02*
X67564000Y-54356000D01*
X64516000Y-55880000D02*
X66040000Y-55880000D01*
%TO.N,+5V*%
X91784000Y-60616000D02*
X90424000Y-61976000D01*
D21*
%TO.N,/DB6*%
X104140000Y-50756237D02*
X102801200Y-49417437D01*
X104140000Y-54356000D02*
X104140000Y-50756237D01*
%TO.N,/DB7*%
X101600000Y-54356000D02*
X101600000Y-50756237D01*
X101600000Y-50756237D02*
X100261200Y-49417437D01*
%TO.N,/DB0*%
X119565200Y-54170800D02*
X119380000Y-54356000D01*
X119565200Y-49417437D02*
X119565200Y-54170800D01*
%TO.N,/DB1*%
X117025200Y-54170800D02*
X116840000Y-54356000D01*
X117025200Y-49417437D02*
X117025200Y-54170800D01*
%TO.N,/DB2*%
X114485200Y-54170800D02*
X114300000Y-54356000D01*
X114485200Y-49417437D02*
X114485200Y-54170800D01*
%TO.N,/DB3*%
X111945200Y-54170800D02*
X111760000Y-54356000D01*
X111945200Y-49417437D02*
X111945200Y-54170800D01*
%TO.N,/DB4*%
X109405200Y-49417437D02*
X109405200Y-54170800D01*
X109405200Y-54170800D02*
X109220000Y-54356000D01*
%TO.N,/DB5*%
X106865200Y-54170800D02*
X106680000Y-54356000D01*
X106865200Y-49417437D02*
X106865200Y-54170800D01*
D20*
%TO.N,GND*%
X97272000Y-54356000D02*
X96012000Y-55616000D01*
X99060000Y-54356000D02*
X97272000Y-54356000D01*
D21*
%TO.N,Net-(D25-A)*%
X119380000Y-61976000D02*
X119380000Y-65268000D01*
X119380000Y-67965000D02*
X119380000Y-65268000D01*
%TO.N,Net-(D25-K)*%
X119380000Y-71628000D02*
X119380000Y-69840000D01*
%TO.N,Net-(D26-K)*%
X116840000Y-69840000D02*
X116840000Y-71628000D01*
%TO.N,Net-(D26-A)*%
X116840000Y-65268000D02*
X116840000Y-67965000D01*
X116840000Y-61976000D02*
X116840000Y-65268000D01*
%TO.N,Net-(D27-A)*%
X114300000Y-61976000D02*
X114300000Y-65268000D01*
X114300000Y-67965000D02*
X114300000Y-65268000D01*
%TO.N,Net-(D27-K)*%
X114300000Y-69840000D02*
X114300000Y-71628000D01*
%TO.N,Net-(D28-K)*%
X111760000Y-69840000D02*
X111760000Y-71628000D01*
%TO.N,Net-(D28-A)*%
X111760000Y-65268000D02*
X111760000Y-67965000D01*
X111760000Y-61976000D02*
X111760000Y-65268000D01*
%TO.N,Net-(D29-A)*%
X109220000Y-65268000D02*
X109220000Y-61976000D01*
X109220000Y-67965000D02*
X109220000Y-65268000D01*
%TO.N,Net-(D29-K)*%
X109220000Y-71628000D02*
X109220000Y-69840000D01*
%TO.N,Net-(D30-K)*%
X106680000Y-69840000D02*
X106680000Y-71628000D01*
%TO.N,Net-(D30-A)*%
X106680000Y-65268000D02*
X106680000Y-67965000D01*
X106680000Y-61976000D02*
X106680000Y-65268000D01*
%TO.N,Net-(D31-A)*%
X104140000Y-65268000D02*
X104140000Y-61976000D01*
X104140000Y-67965000D02*
X104140000Y-65268000D01*
%TO.N,Net-(D31-K)*%
X104140000Y-71628000D02*
X104140000Y-69840000D01*
%TO.N,Net-(D32-K)*%
X101600000Y-69840000D02*
X101600000Y-71628000D01*
%TO.N,Net-(D32-A)*%
X101600000Y-61976000D02*
X101600000Y-65268000D01*
X101600000Y-65268000D02*
X101600000Y-67965000D01*
D20*
%TO.N,+5V*%
X121920000Y-65268000D02*
X121920000Y-61976000D01*
D21*
%TO.N,GND*%
X104140000Y-73453000D02*
X101600000Y-73453000D01*
X106680000Y-73453000D02*
X104140000Y-73453000D01*
X109220000Y-73453000D02*
X106680000Y-73453000D01*
X111760000Y-73453000D02*
X109220000Y-73453000D01*
X114300000Y-73453000D02*
X111760000Y-73453000D01*
X116840000Y-73453000D02*
X114300000Y-73453000D01*
X119380000Y-73453000D02*
X116840000Y-73453000D01*
D20*
X97780000Y-77216000D02*
X99060000Y-75936000D01*
X96012000Y-77216000D02*
X97780000Y-77216000D01*
%TO.N,+5V*%
X121920000Y-83556000D02*
X121920000Y-87112000D01*
X90424000Y-83820000D02*
X90424000Y-87112000D01*
D21*
%TO.N,GND*%
X116840000Y-95297000D02*
X119380000Y-95297000D01*
X114300000Y-95297000D02*
X116840000Y-95297000D01*
X111760000Y-95297000D02*
X114300000Y-95297000D01*
X109220000Y-95297000D02*
X111760000Y-95297000D01*
X106680000Y-95297000D02*
X109220000Y-95297000D01*
X104140000Y-95297000D02*
X106680000Y-95297000D01*
X101600000Y-95297000D02*
X104140000Y-95297000D01*
%TO.N,Net-(D17-K)*%
X119380000Y-91791000D02*
X119380000Y-93472000D01*
%TO.N,Net-(D18-K)*%
X116840000Y-91791000D02*
X116840000Y-93472000D01*
%TO.N,Net-(D19-K)*%
X114300000Y-91791000D02*
X114300000Y-93472000D01*
%TO.N,Net-(D20-K)*%
X111760000Y-91791000D02*
X111760000Y-93472000D01*
%TO.N,Net-(D21-K)*%
X109220000Y-91791000D02*
X109220000Y-93472000D01*
%TO.N,Net-(D22-K)*%
X106680000Y-91791000D02*
X106680000Y-93472000D01*
%TO.N,Net-(D23-K)*%
X104140000Y-91791000D02*
X104140000Y-93472000D01*
%TO.N,Net-(D24-K)*%
X101600000Y-91791000D02*
X101600000Y-93472000D01*
%TO.N,Net-(D17-A)*%
X119380000Y-87112000D02*
X119380000Y-89916000D01*
X119380000Y-86096000D02*
X119380000Y-87112000D01*
X116840000Y-83556000D02*
X119380000Y-86096000D01*
%TO.N,Net-(D18-A)*%
X116840000Y-87112000D02*
X116840000Y-89916000D01*
X116840000Y-86096000D02*
X116840000Y-87112000D01*
X114300000Y-83556000D02*
X116840000Y-86096000D01*
%TO.N,Net-(D19-A)*%
X114300000Y-87112000D02*
X114300000Y-89916000D01*
X114300000Y-86096000D02*
X114300000Y-87112000D01*
X111760000Y-83556000D02*
X114300000Y-86096000D01*
%TO.N,Net-(D20-A)*%
X111760000Y-87112000D02*
X111760000Y-89916000D01*
X111760000Y-86096000D02*
X111760000Y-87112000D01*
X109220000Y-83556000D02*
X111760000Y-86096000D01*
%TO.N,Net-(D21-A)*%
X109220000Y-87112000D02*
X109220000Y-89916000D01*
X109220000Y-86096000D02*
X109220000Y-87112000D01*
X106680000Y-83556000D02*
X109220000Y-86096000D01*
%TO.N,Net-(D22-A)*%
X106680000Y-87112000D02*
X106680000Y-89916000D01*
X106680000Y-86096000D02*
X106680000Y-87112000D01*
X104140000Y-83556000D02*
X106680000Y-86096000D01*
%TO.N,Net-(D23-A)*%
X104140000Y-87112000D02*
X104140000Y-89916000D01*
X101600000Y-83556000D02*
X104140000Y-86096000D01*
X104140000Y-86096000D02*
X104140000Y-87112000D01*
%TO.N,Net-(D24-A)*%
X101600000Y-87112000D02*
X101600000Y-89916000D01*
X99060000Y-83556000D02*
X101600000Y-86096000D01*
X101600000Y-86096000D02*
X101600000Y-87112000D01*
%TO.N,GND*%
X67564000Y-92700000D02*
X67564000Y-87112000D01*
X70104000Y-95240000D02*
X67564000Y-92700000D01*
X72644000Y-95240000D02*
X70104000Y-95240000D01*
X75184000Y-95240000D02*
X72644000Y-95240000D01*
X77724000Y-95240000D02*
X75184000Y-95240000D01*
X80264000Y-95240000D02*
X77724000Y-95240000D01*
X82804000Y-95240000D02*
X80264000Y-95240000D01*
X82804000Y-95240000D02*
X85344000Y-95240000D01*
X87884000Y-95240000D02*
X85344000Y-95240000D01*
%TO.N,Net-(D1-A)*%
X87884000Y-83820000D02*
X87884000Y-87112000D01*
X87884000Y-89809000D02*
X87884000Y-87112000D01*
%TO.N,Net-(D1-K)*%
X87884000Y-91684000D02*
X87884000Y-93415000D01*
%TO.N,Net-(D2-K)*%
X85344000Y-91684000D02*
X85344000Y-93415000D01*
%TO.N,Net-(D2-A)*%
X85344000Y-87112000D02*
X85344000Y-89809000D01*
X85344000Y-83820000D02*
X85344000Y-87112000D01*
%TO.N,Net-(D3-A)*%
X82804000Y-83820000D02*
X82804000Y-87112000D01*
X82804000Y-89809000D02*
X82804000Y-87112000D01*
%TO.N,Net-(D3-K)*%
X82804000Y-91684000D02*
X82804000Y-93415000D01*
%TO.N,Net-(D4-K)*%
X80264000Y-91684000D02*
X80264000Y-93415000D01*
%TO.N,Net-(D4-A)*%
X80264000Y-87112000D02*
X80264000Y-89809000D01*
X80264000Y-83820000D02*
X80264000Y-87112000D01*
%TO.N,Net-(D5-A)*%
X77724000Y-83820000D02*
X77724000Y-87112000D01*
X77724000Y-87112000D02*
X77724000Y-89809000D01*
%TO.N,Net-(D5-K)*%
X77724000Y-93415000D02*
X77724000Y-91684000D01*
%TO.N,Net-(D6-K)*%
X75184000Y-91684000D02*
X75184000Y-93415000D01*
%TO.N,Net-(D6-A)*%
X75184000Y-87112000D02*
X75184000Y-89809000D01*
X75184000Y-83820000D02*
X75184000Y-87112000D01*
%TO.N,Net-(D7-A)*%
X72644000Y-87112000D02*
X72644000Y-83820000D01*
X72644000Y-89809000D02*
X72644000Y-87112000D01*
%TO.N,Net-(D7-K)*%
X72644000Y-91684000D02*
X72644000Y-93415000D01*
%TO.N,Net-(D8-K)*%
X70104000Y-91684000D02*
X70104000Y-93415000D01*
%TO.N,Net-(D8-A)*%
X70104000Y-87112000D02*
X70104000Y-89809000D01*
X70104000Y-83820000D02*
X70104000Y-87112000D01*
D20*
%TO.N,GND*%
X66040000Y-76200000D02*
X64516000Y-77724000D01*
X67564000Y-76200000D02*
X66040000Y-76200000D01*
D21*
X85344000Y-73660000D02*
X87884000Y-73660000D01*
X82804000Y-73660000D02*
X85344000Y-73660000D01*
X80264000Y-73660000D02*
X82804000Y-73660000D01*
X77724000Y-73660000D02*
X80264000Y-73660000D01*
X75184000Y-73660000D02*
X77724000Y-73660000D01*
X72644000Y-73660000D02*
X75184000Y-73660000D01*
X70104000Y-73660000D02*
X72644000Y-73660000D01*
%TO.N,Net-(D16-K)*%
X70104000Y-70104000D02*
X70104000Y-71835000D01*
%TO.N,Net-(D16-A)*%
X70104000Y-65532000D02*
X70104000Y-68229000D01*
X70104000Y-61976000D02*
X70104000Y-65532000D01*
%TO.N,Net-(D15-K)*%
X72644000Y-70104000D02*
X72644000Y-71835000D01*
%TO.N,Net-(D15-A)*%
X72644000Y-65532000D02*
X72644000Y-68229000D01*
X72644000Y-61976000D02*
X72644000Y-65532000D01*
%TO.N,Net-(D14-K)*%
X75184000Y-70104000D02*
X75184000Y-71835000D01*
%TO.N,Net-(D14-A)*%
X75184000Y-65532000D02*
X75184000Y-68229000D01*
X75184000Y-61976000D02*
X75184000Y-65532000D01*
%TO.N,Net-(D13-K)*%
X77724000Y-70104000D02*
X77724000Y-71835000D01*
%TO.N,Net-(D13-A)*%
X77724000Y-65532000D02*
X77724000Y-68229000D01*
X77724000Y-61976000D02*
X77724000Y-65532000D01*
%TO.N,Net-(D12-K)*%
X80264000Y-70104000D02*
X80264000Y-71835000D01*
%TO.N,Net-(D12-A)*%
X80264000Y-65532000D02*
X80264000Y-68229000D01*
X80264000Y-61976000D02*
X80264000Y-65532000D01*
%TO.N,Net-(D11-K)*%
X82804000Y-70104000D02*
X82804000Y-71835000D01*
%TO.N,Net-(D11-A)*%
X82804000Y-65532000D02*
X82804000Y-68229000D01*
X82804000Y-61976000D02*
X82804000Y-65532000D01*
%TO.N,Net-(D10-K)*%
X85344000Y-70104000D02*
X85344000Y-71835000D01*
%TO.N,Net-(D10-A)*%
X85344000Y-65532000D02*
X85344000Y-68229000D01*
X85344000Y-61976000D02*
X85344000Y-65532000D01*
%TO.N,Net-(D9-A)*%
X87884000Y-65532000D02*
X87884000Y-61976000D01*
%TO.N,Net-(D9-K)*%
X87884000Y-70104000D02*
X87884000Y-71835000D01*
%TO.N,Net-(D9-A)*%
X87884000Y-65532000D02*
X87884000Y-68229000D01*
%TO.N,/LE_A_PIN*%
X67564000Y-83820000D02*
X66548000Y-84836000D01*
X66548000Y-84836000D02*
X63500000Y-84836000D01*
X62738000Y-54356000D02*
X69342000Y-47752000D01*
X63500000Y-84836000D02*
X62738000Y-84074000D01*
X62738000Y-84074000D02*
X62738000Y-54356000D01*
X69342000Y-47752000D02*
X88435763Y-47752000D01*
X88435763Y-47752000D02*
X90101200Y-49417437D01*
%TD*%
M02*
