%TF.GenerationSoftware,KiCad,Pcbnew,8.0.8*%
%TF.CreationDate,2025-02-03T13:00:51-08:00*%
%TF.ProjectId,ArduinoExpander,41726475-696e-46f4-9578-70616e646572,rev?*%
%TF.SameCoordinates,Original*%
%TF.FileFunction,Soldermask,Top*%
%TF.FilePolarity,Negative*%
%FSLAX46Y46*%
G04 Gerber Fmt 4.6, Leading zero omitted, Abs format (unit mm)*
G04 Created by KiCad (PCBNEW 8.0.8) date 2025-02-03 13:00:51*
%MOMM*%
%LPD*%
G01*
G04 APERTURE LIST*
G04 Aperture macros list*
%AMRoundRect*
0 Rectangle with rounded corners*
0 $1 Rounding radius*
0 $2 $3 $4 $5 $6 $7 $8 $9 X,Y pos of 4 corners*
0 Add a 4 corners polygon primitive as box body*
4,1,4,$2,$3,$4,$5,$6,$7,$8,$9,$2,$3,0*
0 Add four circle primitives for the rounded corners*
1,1,$1+$1,$2,$3*
1,1,$1+$1,$4,$5*
1,1,$1+$1,$6,$7*
1,1,$1+$1,$8,$9*
0 Add four rect primitives between the rounded corners*
20,1,$1+$1,$2,$3,$4,$5,0*
20,1,$1+$1,$4,$5,$6,$7,0*
20,1,$1+$1,$6,$7,$8,$9,0*
20,1,$1+$1,$8,$9,$2,$3,0*%
G04 Aperture macros list end*
%ADD10C,1.600000*%
%ADD11RoundRect,0.243750X0.456250X-0.243750X0.456250X0.243750X-0.456250X0.243750X-0.456250X-0.243750X0*%
%ADD12RoundRect,0.250000X-0.450000X0.262500X-0.450000X-0.262500X0.450000X-0.262500X0.450000X0.262500X0*%
%ADD13O,1.727200X1.727200*%
%ADD14R,1.727200X1.727200*%
%ADD15R,1.700000X1.700000*%
%ADD16O,1.700000X1.700000*%
%ADD17R,1.600000X1.600000*%
%ADD18O,1.600000X1.600000*%
G04 APERTURE END LIST*
D10*
%TO.C,C5*%
X124968000Y-73580000D03*
X124968000Y-68580000D03*
%TD*%
%TO.C,C1*%
X64516000Y-77724000D03*
X64516000Y-82724000D03*
%TD*%
D11*
%TO.C,D23*%
X104140000Y-91791000D03*
X104140000Y-89916000D03*
%TD*%
D12*
%TO.C,R9*%
X87884000Y-71835000D03*
X87884000Y-73660000D03*
%TD*%
D11*
%TO.C,D5*%
X77724000Y-91684000D03*
X77724000Y-89809000D03*
%TD*%
D12*
%TO.C,R3*%
X82804000Y-93415000D03*
X82804000Y-95240000D03*
%TD*%
%TO.C,R10*%
X85344000Y-71835000D03*
X85344000Y-73660000D03*
%TD*%
%TO.C,R22*%
X106680000Y-93472000D03*
X106680000Y-95297000D03*
%TD*%
%TO.C,R4*%
X80264000Y-93415000D03*
X80264000Y-95240000D03*
%TD*%
D11*
%TO.C,D18*%
X116840000Y-91791000D03*
X116840000Y-89916000D03*
%TD*%
D10*
%TO.C,C2*%
X64516000Y-55880000D03*
X64516000Y-60880000D03*
%TD*%
D12*
%TO.C,R27*%
X114300000Y-71628000D03*
X114300000Y-73453000D03*
%TD*%
D11*
%TO.C,D29*%
X109220000Y-67965000D03*
X109220000Y-69840000D03*
%TD*%
%TO.C,D22*%
X106680000Y-91791000D03*
X106680000Y-89916000D03*
%TD*%
D12*
%TO.C,R26*%
X116840000Y-71628000D03*
X116840000Y-73453000D03*
%TD*%
%TO.C,R19*%
X114300000Y-93472000D03*
X114300000Y-95297000D03*
%TD*%
D13*
%TO.C,A1*%
X106865200Y-97677437D03*
X82481200Y-49417437D03*
X79941200Y-49417437D03*
X94165200Y-97677437D03*
X91625200Y-97677437D03*
D14*
X104325200Y-97677437D03*
X101785200Y-97677437D03*
X87561200Y-49417437D03*
D13*
X90101200Y-49417437D03*
X92641200Y-49417437D03*
X95181200Y-49417437D03*
X97721200Y-49417437D03*
X100261200Y-49417437D03*
X102801200Y-49417437D03*
X106865200Y-49417437D03*
X109405200Y-49417437D03*
X111945200Y-49417437D03*
X114485200Y-49417437D03*
X117025200Y-49417437D03*
X119565200Y-49417437D03*
X122105200Y-49417437D03*
X124645200Y-49417437D03*
X85021200Y-49417437D03*
X124645200Y-97677437D03*
X122105200Y-97677437D03*
X119565200Y-97677437D03*
X117025200Y-97677437D03*
X114485200Y-97677437D03*
X111945200Y-97677437D03*
X99245200Y-97677437D03*
X96705200Y-97677437D03*
X89085200Y-97677437D03*
%TD*%
D11*
%TO.C,D6*%
X75184000Y-91684000D03*
X75184000Y-89809000D03*
%TD*%
%TO.C,D7*%
X72644000Y-91684000D03*
X72644000Y-89809000D03*
%TD*%
D15*
%TO.C,J3*%
X121920000Y-87112000D03*
D16*
X119380000Y-87112000D03*
X116840000Y-87112000D03*
X114300000Y-87112000D03*
X111760000Y-87112000D03*
X109220000Y-87112000D03*
X106680000Y-87112000D03*
X104140000Y-87112000D03*
X101600000Y-87112000D03*
X99060000Y-87112000D03*
%TD*%
D11*
%TO.C,D1*%
X87884000Y-91684000D03*
X87884000Y-89809000D03*
%TD*%
D12*
%TO.C,R2*%
X85344000Y-93415000D03*
X85344000Y-95240000D03*
%TD*%
D11*
%TO.C,D28*%
X111760000Y-67965000D03*
X111760000Y-69840000D03*
%TD*%
D17*
%TO.C,U1*%
X90424000Y-76200000D03*
D18*
X87884000Y-76200000D03*
X85344000Y-76200000D03*
X82804000Y-76200000D03*
X80264000Y-76200000D03*
X77724000Y-76200000D03*
X75184000Y-76200000D03*
X72644000Y-76200000D03*
X70104000Y-76200000D03*
X67564000Y-76200000D03*
X67564000Y-83820000D03*
X70104000Y-83820000D03*
X72644000Y-83820000D03*
X75184000Y-83820000D03*
X77724000Y-83820000D03*
X80264000Y-83820000D03*
X82804000Y-83820000D03*
X85344000Y-83820000D03*
X87884000Y-83820000D03*
X90424000Y-83820000D03*
%TD*%
D12*
%TO.C,R5*%
X77724000Y-93415000D03*
X77724000Y-95240000D03*
%TD*%
%TO.C,R20*%
X111760000Y-93472000D03*
X111760000Y-95297000D03*
%TD*%
D17*
%TO.C,U2*%
X90424000Y-54356000D03*
D18*
X87884000Y-54356000D03*
X85344000Y-54356000D03*
X82804000Y-54356000D03*
X80264000Y-54356000D03*
X77724000Y-54356000D03*
X75184000Y-54356000D03*
X72644000Y-54356000D03*
X70104000Y-54356000D03*
X67564000Y-54356000D03*
X67564000Y-61976000D03*
X70104000Y-61976000D03*
X72644000Y-61976000D03*
X75184000Y-61976000D03*
X77724000Y-61976000D03*
X80264000Y-61976000D03*
X82804000Y-61976000D03*
X85344000Y-61976000D03*
X87884000Y-61976000D03*
X90424000Y-61976000D03*
%TD*%
D12*
%TO.C,R30*%
X106680000Y-71628000D03*
X106680000Y-73453000D03*
%TD*%
D17*
%TO.C,U4*%
X121920000Y-54356000D03*
D18*
X119380000Y-54356000D03*
X116840000Y-54356000D03*
X114300000Y-54356000D03*
X111760000Y-54356000D03*
X109220000Y-54356000D03*
X106680000Y-54356000D03*
X104140000Y-54356000D03*
X101600000Y-54356000D03*
X99060000Y-54356000D03*
X99060000Y-61976000D03*
X101600000Y-61976000D03*
X104140000Y-61976000D03*
X106680000Y-61976000D03*
X109220000Y-61976000D03*
X111760000Y-61976000D03*
X114300000Y-61976000D03*
X116840000Y-61976000D03*
X119380000Y-61976000D03*
X121920000Y-61976000D03*
%TD*%
D11*
%TO.C,D8*%
X70104000Y-91684000D03*
X70104000Y-89809000D03*
%TD*%
D12*
%TO.C,R17*%
X119380000Y-93472000D03*
X119380000Y-95297000D03*
%TD*%
D11*
%TO.C,D13*%
X77724000Y-70104000D03*
X77724000Y-68229000D03*
%TD*%
%TO.C,D30*%
X106680000Y-67965000D03*
X106680000Y-69840000D03*
%TD*%
D15*
%TO.C,J2*%
X90424000Y-65532000D03*
D16*
X87884000Y-65532000D03*
X85344000Y-65532000D03*
X82804000Y-65532000D03*
X80264000Y-65532000D03*
X77724000Y-65532000D03*
X75184000Y-65532000D03*
X72644000Y-65532000D03*
X70104000Y-65532000D03*
X67564000Y-65532000D03*
%TD*%
D11*
%TO.C,D14*%
X75184000Y-70104000D03*
X75184000Y-68229000D03*
%TD*%
%TO.C,D24*%
X101600000Y-91791000D03*
X101600000Y-89916000D03*
%TD*%
D12*
%TO.C,R29*%
X109220000Y-71628000D03*
X109220000Y-73453000D03*
%TD*%
D10*
%TO.C,C3*%
X96012000Y-55616000D03*
X96012000Y-60616000D03*
%TD*%
D12*
%TO.C,R1*%
X87884000Y-93415000D03*
X87884000Y-95240000D03*
%TD*%
%TO.C,R13*%
X77724000Y-71835000D03*
X77724000Y-73660000D03*
%TD*%
D11*
%TO.C,D27*%
X114300000Y-67965000D03*
X114300000Y-69840000D03*
%TD*%
D12*
%TO.C,R15*%
X72644000Y-71835000D03*
X72644000Y-73660000D03*
%TD*%
%TO.C,R7*%
X72644000Y-93415000D03*
X72644000Y-95240000D03*
%TD*%
D11*
%TO.C,D16*%
X70104000Y-70104000D03*
X70104000Y-68229000D03*
%TD*%
%TO.C,D19*%
X114300000Y-91791000D03*
X114300000Y-89916000D03*
%TD*%
%TO.C,D2*%
X85344000Y-91684000D03*
X85344000Y-89809000D03*
%TD*%
D12*
%TO.C,R18*%
X116840000Y-93472000D03*
X116840000Y-95297000D03*
%TD*%
%TO.C,R12*%
X80264000Y-71835000D03*
X80264000Y-73660000D03*
%TD*%
%TO.C,R14*%
X75184000Y-71835000D03*
X75184000Y-73660000D03*
%TD*%
D11*
%TO.C,D17*%
X119380000Y-91791000D03*
X119380000Y-89916000D03*
%TD*%
%TO.C,D25*%
X119380000Y-69840000D03*
X119380000Y-67965000D03*
%TD*%
%TO.C,D21*%
X109220000Y-91791000D03*
X109220000Y-89916000D03*
%TD*%
D12*
%TO.C,R31*%
X104140000Y-71628000D03*
X104140000Y-73453000D03*
%TD*%
%TO.C,R28*%
X111760000Y-71628000D03*
X111760000Y-73453000D03*
%TD*%
D11*
%TO.C,D26*%
X116840000Y-67965000D03*
X116840000Y-69840000D03*
%TD*%
D12*
%TO.C,R16*%
X70104000Y-71835000D03*
X70104000Y-73660000D03*
%TD*%
%TO.C,R23*%
X104140000Y-93472000D03*
X104140000Y-95297000D03*
%TD*%
D11*
%TO.C,D11*%
X82804000Y-70104000D03*
X82804000Y-68229000D03*
%TD*%
%TO.C,D15*%
X72644000Y-68229000D03*
X72644000Y-70104000D03*
%TD*%
D10*
%TO.C,C4*%
X96012000Y-77216000D03*
X96012000Y-82216000D03*
%TD*%
D17*
%TO.C,U3*%
X121920000Y-75936000D03*
D18*
X119380000Y-75936000D03*
X116840000Y-75936000D03*
X114300000Y-75936000D03*
X111760000Y-75936000D03*
X109220000Y-75936000D03*
X106680000Y-75936000D03*
X104140000Y-75936000D03*
X101600000Y-75936000D03*
X99060000Y-75936000D03*
X99060000Y-83556000D03*
X101600000Y-83556000D03*
X104140000Y-83556000D03*
X106680000Y-83556000D03*
X109220000Y-83556000D03*
X111760000Y-83556000D03*
X114300000Y-83556000D03*
X116840000Y-83556000D03*
X119380000Y-83556000D03*
X121920000Y-83556000D03*
%TD*%
D15*
%TO.C,J4*%
X121920000Y-65268000D03*
D16*
X119380000Y-65268000D03*
X116840000Y-65268000D03*
X114300000Y-65268000D03*
X111760000Y-65268000D03*
X109220000Y-65268000D03*
X106680000Y-65268000D03*
X104140000Y-65268000D03*
X101600000Y-65268000D03*
X99060000Y-65268000D03*
%TD*%
D12*
%TO.C,R21*%
X109220000Y-93472000D03*
X109220000Y-95297000D03*
%TD*%
D11*
%TO.C,D9*%
X87884000Y-70104000D03*
X87884000Y-68229000D03*
%TD*%
%TO.C,D12*%
X80264000Y-70104000D03*
X80264000Y-68229000D03*
%TD*%
%TO.C,D4*%
X80264000Y-91684000D03*
X80264000Y-89809000D03*
%TD*%
D12*
%TO.C,R6*%
X75184000Y-93415000D03*
X75184000Y-95240000D03*
%TD*%
D15*
%TO.C,J5*%
X128016000Y-68580000D03*
D16*
X128016000Y-71120000D03*
X128016000Y-73660000D03*
X128016000Y-76200000D03*
X128016000Y-78740000D03*
%TD*%
D12*
%TO.C,R25*%
X119380000Y-71628000D03*
X119380000Y-73453000D03*
%TD*%
D11*
%TO.C,D3*%
X82804000Y-91684000D03*
X82804000Y-89809000D03*
%TD*%
D12*
%TO.C,R32*%
X101600000Y-71628000D03*
X101600000Y-73453000D03*
%TD*%
%TO.C,R8*%
X70104000Y-93415000D03*
X70104000Y-95240000D03*
%TD*%
D11*
%TO.C,D20*%
X111760000Y-91791000D03*
X111760000Y-89916000D03*
%TD*%
%TO.C,D10*%
X85344000Y-70104000D03*
X85344000Y-68229000D03*
%TD*%
D15*
%TO.C,J1*%
X90424000Y-87112000D03*
D16*
X87884000Y-87112000D03*
X85344000Y-87112000D03*
X82804000Y-87112000D03*
X80264000Y-87112000D03*
X77724000Y-87112000D03*
X75184000Y-87112000D03*
X72644000Y-87112000D03*
X70104000Y-87112000D03*
X67564000Y-87112000D03*
%TD*%
D11*
%TO.C,D32*%
X101600000Y-67965000D03*
X101600000Y-69840000D03*
%TD*%
D12*
%TO.C,R24*%
X101600000Y-93472000D03*
X101600000Y-95297000D03*
%TD*%
D11*
%TO.C,D31*%
X104140000Y-67965000D03*
X104140000Y-69840000D03*
%TD*%
D12*
%TO.C,R11*%
X82804000Y-71835000D03*
X82804000Y-73660000D03*
%TD*%
M02*
