M48
; DRILL file {KiCad 8.0.8} date 2025-02-03T13:00:56-0800
; FORMAT={-:-/ absolute / inch / decimal}
; #@! TF.CreationDate,2025-02-03T13:00:56-08:00
; #@! TF.GenerationSoftware,Kicad,Pcbnew,8.0.8
; #@! TF.FileFunction,Plated,1,2,PTH
FMAT,2
INCH
; #@! TA.AperFunction,Plated,PTH,ViaDrill
T1C0.0118
; #@! TA.AperFunction,Plated,PTH,ComponentDrill
T2C0.0315
; #@! TA.AperFunction,Plated,PTH,ComponentDrill
T3C0.0394
; #@! TA.AperFunction,Plated,PTH,ComponentDrill
T4C0.0400
%
G90
G05
T1
X2.91Y-2.25
X3.01Y-2.27
X3.1147Y-2.29
X3.2106Y-2.31
X3.3147Y-2.3236
T2
X2.54Y-2.2
X2.54Y-2.3969
X2.54Y-3.06
X2.54Y-3.2569
X2.66Y-2.14
X2.66Y-2.44
X2.66Y-3.0
X2.66Y-3.3
X2.76Y-2.14
X2.76Y-2.44
X2.76Y-3.0
X2.76Y-3.3
X2.86Y-2.14
X2.86Y-2.44
X2.86Y-3.0
X2.86Y-3.3
X2.96Y-2.14
X2.96Y-2.44
X2.96Y-3.0
X2.96Y-3.3
X3.06Y-2.14
X3.06Y-2.44
X3.06Y-3.0
X3.06Y-3.3
X3.16Y-2.14
X3.16Y-2.44
X3.16Y-3.0
X3.16Y-3.3
X3.26Y-2.14
X3.26Y-2.44
X3.26Y-3.0
X3.26Y-3.3
X3.36Y-2.14
X3.36Y-2.44
X3.36Y-3.0
X3.36Y-3.3
X3.46Y-2.14
X3.46Y-2.44
X3.46Y-3.0
X3.46Y-3.3
X3.56Y-2.14
X3.56Y-2.44
X3.56Y-3.0
X3.56Y-3.3
X3.78Y-2.1896
X3.78Y-2.3865
X3.78Y-3.04
X3.78Y-3.2369
X3.9Y-2.14
X3.9Y-2.44
X3.9Y-2.9896
X3.9Y-3.2896
X4.0Y-2.14
X4.0Y-2.44
X4.0Y-2.9896
X4.0Y-3.2896
X4.1Y-2.14
X4.1Y-2.44
X4.1Y-2.9896
X4.1Y-3.2896
X4.2Y-2.14
X4.2Y-2.44
X4.2Y-2.9896
X4.2Y-3.2896
X4.3Y-2.14
X4.3Y-2.44
X4.3Y-2.9896
X4.3Y-3.2896
X4.4Y-2.14
X4.4Y-2.44
X4.4Y-2.9896
X4.4Y-3.2896
X4.5Y-2.14
X4.5Y-2.44
X4.5Y-2.9896
X4.5Y-3.2896
X4.6Y-2.14
X4.6Y-2.44
X4.6Y-2.9896
X4.6Y-3.2896
X4.7Y-2.14
X4.7Y-2.44
X4.7Y-2.9896
X4.7Y-3.2896
X4.8Y-2.14
X4.8Y-2.44
X4.8Y-2.9896
X4.8Y-3.2896
X4.92Y-2.7
X4.92Y-2.8969
T3
X2.66Y-2.58
X2.66Y-3.4296
X2.76Y-2.58
X2.76Y-3.4296
X2.86Y-2.58
X2.86Y-3.4296
X2.96Y-2.58
X2.96Y-3.4296
X3.06Y-2.58
X3.06Y-3.4296
X3.16Y-2.58
X3.16Y-3.4296
X3.26Y-2.58
X3.26Y-3.4296
X3.36Y-2.58
X3.36Y-3.4296
X3.46Y-2.58
X3.46Y-3.4296
X3.56Y-2.58
X3.56Y-3.4296
X3.9Y-2.5696
X3.9Y-3.4296
X4.0Y-2.5696
X4.0Y-3.4296
X4.1Y-2.5696
X4.1Y-3.4296
X4.2Y-2.5696
X4.2Y-3.4296
X4.3Y-2.5696
X4.3Y-3.4296
X4.4Y-2.5696
X4.4Y-3.4296
X4.5Y-2.5696
X4.5Y-3.4296
X4.6Y-2.5696
X4.6Y-3.4296
X4.7Y-2.5696
X4.7Y-3.4296
X4.8Y-2.5696
X4.8Y-3.4296
X5.04Y-2.7
X5.04Y-2.8
X5.04Y-2.9
X5.04Y-3.0
X5.04Y-3.1
T4
X3.1473Y-1.9456
X3.2473Y-1.9456
X3.3473Y-1.9456
X3.4473Y-1.9456
X3.5073Y-3.8456
X3.5473Y-1.9456
X3.6073Y-3.8456
X3.6473Y-1.9456
X3.7073Y-3.8456
X3.7473Y-1.9456
X3.8073Y-3.8456
X3.8473Y-1.9456
X3.9073Y-3.8456
X3.9473Y-1.9456
X4.0073Y-3.8456
X4.0473Y-1.9456
X4.1073Y-3.8456
X4.2073Y-1.9456
X4.2073Y-3.8456
X4.3073Y-1.9456
X4.4073Y-1.9456
X4.4073Y-3.8456
X4.5073Y-1.9456
X4.5073Y-3.8456
X4.6073Y-1.9456
X4.6073Y-3.8456
X4.7073Y-1.9456
X4.7073Y-3.8456
X4.8073Y-1.9456
X4.8073Y-3.8456
X4.9073Y-1.9456
X4.9073Y-3.8456
M30
