%TF.GenerationSoftware,KiCad,Pcbnew,8.0.8*%
%TF.CreationDate,2025-02-03T13:00:51-08:00*%
%TF.ProjectId,ArduinoExpander,41726475-696e-46f4-9578-70616e646572,rev?*%
%TF.SameCoordinates,Original*%
%TF.FileFunction,Legend,Bot*%
%TF.FilePolarity,Positive*%
%FSLAX46Y46*%
G04 Gerber Fmt 4.6, Leading zero omitted, Abs format (unit mm)*
G04 Created by KiCad (PCBNEW 8.0.8) date 2025-02-03 13:00:51*
%MOMM*%
%LPD*%
G01*
G04 APERTURE LIST*
%ADD10C,0.150000*%
G04 APERTURE END LIST*
D10*
X92133200Y-67049017D02*
X92180819Y-67096637D01*
X92180819Y-67096637D02*
X92133200Y-67144256D01*
X92133200Y-67144256D02*
X92085581Y-67096637D01*
X92085581Y-67096637D02*
X92133200Y-67049017D01*
X92133200Y-67049017D02*
X92133200Y-67144256D01*
X85414001Y-98213104D02*
X84937811Y-98213104D01*
X85509239Y-98498819D02*
X85175906Y-97498819D01*
X85175906Y-97498819D02*
X84842573Y-98498819D01*
X84509239Y-98498819D02*
X84509239Y-97832152D01*
X84509239Y-98022628D02*
X84461620Y-97927390D01*
X84461620Y-97927390D02*
X84414001Y-97879771D01*
X84414001Y-97879771D02*
X84318763Y-97832152D01*
X84318763Y-97832152D02*
X84223525Y-97832152D01*
X83461620Y-98498819D02*
X83461620Y-97498819D01*
X83461620Y-98451200D02*
X83556858Y-98498819D01*
X83556858Y-98498819D02*
X83747334Y-98498819D01*
X83747334Y-98498819D02*
X83842572Y-98451200D01*
X83842572Y-98451200D02*
X83890191Y-98403580D01*
X83890191Y-98403580D02*
X83937810Y-98308342D01*
X83937810Y-98308342D02*
X83937810Y-98022628D01*
X83937810Y-98022628D02*
X83890191Y-97927390D01*
X83890191Y-97927390D02*
X83842572Y-97879771D01*
X83842572Y-97879771D02*
X83747334Y-97832152D01*
X83747334Y-97832152D02*
X83556858Y-97832152D01*
X83556858Y-97832152D02*
X83461620Y-97879771D01*
X82556858Y-97832152D02*
X82556858Y-98498819D01*
X82985429Y-97832152D02*
X82985429Y-98355961D01*
X82985429Y-98355961D02*
X82937810Y-98451200D01*
X82937810Y-98451200D02*
X82842572Y-98498819D01*
X82842572Y-98498819D02*
X82699715Y-98498819D01*
X82699715Y-98498819D02*
X82604477Y-98451200D01*
X82604477Y-98451200D02*
X82556858Y-98403580D01*
X82080667Y-98498819D02*
X82080667Y-97832152D01*
X82080667Y-97498819D02*
X82128286Y-97546438D01*
X82128286Y-97546438D02*
X82080667Y-97594057D01*
X82080667Y-97594057D02*
X82033048Y-97546438D01*
X82033048Y-97546438D02*
X82080667Y-97498819D01*
X82080667Y-97498819D02*
X82080667Y-97594057D01*
X81604477Y-97832152D02*
X81604477Y-98498819D01*
X81604477Y-97927390D02*
X81556858Y-97879771D01*
X81556858Y-97879771D02*
X81461620Y-97832152D01*
X81461620Y-97832152D02*
X81318763Y-97832152D01*
X81318763Y-97832152D02*
X81223525Y-97879771D01*
X81223525Y-97879771D02*
X81175906Y-97975009D01*
X81175906Y-97975009D02*
X81175906Y-98498819D01*
X80556858Y-98498819D02*
X80652096Y-98451200D01*
X80652096Y-98451200D02*
X80699715Y-98403580D01*
X80699715Y-98403580D02*
X80747334Y-98308342D01*
X80747334Y-98308342D02*
X80747334Y-98022628D01*
X80747334Y-98022628D02*
X80699715Y-97927390D01*
X80699715Y-97927390D02*
X80652096Y-97879771D01*
X80652096Y-97879771D02*
X80556858Y-97832152D01*
X80556858Y-97832152D02*
X80414001Y-97832152D01*
X80414001Y-97832152D02*
X80318763Y-97879771D01*
X80318763Y-97879771D02*
X80271144Y-97927390D01*
X80271144Y-97927390D02*
X80223525Y-98022628D01*
X80223525Y-98022628D02*
X80223525Y-98308342D01*
X80223525Y-98308342D02*
X80271144Y-98403580D01*
X80271144Y-98403580D02*
X80318763Y-98451200D01*
X80318763Y-98451200D02*
X80414001Y-98498819D01*
X80414001Y-98498819D02*
X80556858Y-98498819D01*
X79033048Y-97498819D02*
X79033048Y-98308342D01*
X79033048Y-98308342D02*
X78985429Y-98403580D01*
X78985429Y-98403580D02*
X78937810Y-98451200D01*
X78937810Y-98451200D02*
X78842572Y-98498819D01*
X78842572Y-98498819D02*
X78652096Y-98498819D01*
X78652096Y-98498819D02*
X78556858Y-98451200D01*
X78556858Y-98451200D02*
X78509239Y-98403580D01*
X78509239Y-98403580D02*
X78461620Y-98308342D01*
X78461620Y-98308342D02*
X78461620Y-97498819D01*
X77985429Y-97832152D02*
X77985429Y-98498819D01*
X77985429Y-97927390D02*
X77937810Y-97879771D01*
X77937810Y-97879771D02*
X77842572Y-97832152D01*
X77842572Y-97832152D02*
X77699715Y-97832152D01*
X77699715Y-97832152D02*
X77604477Y-97879771D01*
X77604477Y-97879771D02*
X77556858Y-97975009D01*
X77556858Y-97975009D02*
X77556858Y-98498819D01*
X76937810Y-98498819D02*
X77033048Y-98451200D01*
X77033048Y-98451200D02*
X77080667Y-98403580D01*
X77080667Y-98403580D02*
X77128286Y-98308342D01*
X77128286Y-98308342D02*
X77128286Y-98022628D01*
X77128286Y-98022628D02*
X77080667Y-97927390D01*
X77080667Y-97927390D02*
X77033048Y-97879771D01*
X77033048Y-97879771D02*
X76937810Y-97832152D01*
X76937810Y-97832152D02*
X76794953Y-97832152D01*
X76794953Y-97832152D02*
X76699715Y-97879771D01*
X76699715Y-97879771D02*
X76652096Y-97927390D01*
X76652096Y-97927390D02*
X76604477Y-98022628D01*
X76604477Y-98022628D02*
X76604477Y-98308342D01*
X76604477Y-98308342D02*
X76652096Y-98403580D01*
X76652096Y-98403580D02*
X76699715Y-98451200D01*
X76699715Y-98451200D02*
X76794953Y-98498819D01*
X76794953Y-98498819D02*
X76937810Y-98498819D01*
X75414000Y-98498819D02*
X75414000Y-97498819D01*
X75414000Y-97498819D02*
X75033048Y-97498819D01*
X75033048Y-97498819D02*
X74937810Y-97546438D01*
X74937810Y-97546438D02*
X74890191Y-97594057D01*
X74890191Y-97594057D02*
X74842572Y-97689295D01*
X74842572Y-97689295D02*
X74842572Y-97832152D01*
X74842572Y-97832152D02*
X74890191Y-97927390D01*
X74890191Y-97927390D02*
X74937810Y-97975009D01*
X74937810Y-97975009D02*
X75033048Y-98022628D01*
X75033048Y-98022628D02*
X75414000Y-98022628D01*
X73985429Y-98498819D02*
X73985429Y-97975009D01*
X73985429Y-97975009D02*
X74033048Y-97879771D01*
X74033048Y-97879771D02*
X74128286Y-97832152D01*
X74128286Y-97832152D02*
X74318762Y-97832152D01*
X74318762Y-97832152D02*
X74414000Y-97879771D01*
X73985429Y-98451200D02*
X74080667Y-98498819D01*
X74080667Y-98498819D02*
X74318762Y-98498819D01*
X74318762Y-98498819D02*
X74414000Y-98451200D01*
X74414000Y-98451200D02*
X74461619Y-98355961D01*
X74461619Y-98355961D02*
X74461619Y-98260723D01*
X74461619Y-98260723D02*
X74414000Y-98165485D01*
X74414000Y-98165485D02*
X74318762Y-98117866D01*
X74318762Y-98117866D02*
X74080667Y-98117866D01*
X74080667Y-98117866D02*
X73985429Y-98070247D01*
X73509238Y-98498819D02*
X73509238Y-97832152D01*
X73509238Y-98022628D02*
X73461619Y-97927390D01*
X73461619Y-97927390D02*
X73414000Y-97879771D01*
X73414000Y-97879771D02*
X73318762Y-97832152D01*
X73318762Y-97832152D02*
X73223524Y-97832152D01*
X72461619Y-98498819D02*
X72461619Y-97975009D01*
X72461619Y-97975009D02*
X72509238Y-97879771D01*
X72509238Y-97879771D02*
X72604476Y-97832152D01*
X72604476Y-97832152D02*
X72794952Y-97832152D01*
X72794952Y-97832152D02*
X72890190Y-97879771D01*
X72461619Y-98451200D02*
X72556857Y-98498819D01*
X72556857Y-98498819D02*
X72794952Y-98498819D01*
X72794952Y-98498819D02*
X72890190Y-98451200D01*
X72890190Y-98451200D02*
X72937809Y-98355961D01*
X72937809Y-98355961D02*
X72937809Y-98260723D01*
X72937809Y-98260723D02*
X72890190Y-98165485D01*
X72890190Y-98165485D02*
X72794952Y-98117866D01*
X72794952Y-98117866D02*
X72556857Y-98117866D01*
X72556857Y-98117866D02*
X72461619Y-98070247D01*
X71842571Y-98498819D02*
X71937809Y-98451200D01*
X71937809Y-98451200D02*
X71985428Y-98355961D01*
X71985428Y-98355961D02*
X71985428Y-97498819D01*
X71318761Y-98498819D02*
X71413999Y-98451200D01*
X71413999Y-98451200D02*
X71461618Y-98355961D01*
X71461618Y-98355961D02*
X71461618Y-97498819D01*
X70556856Y-98451200D02*
X70652094Y-98498819D01*
X70652094Y-98498819D02*
X70842570Y-98498819D01*
X70842570Y-98498819D02*
X70937808Y-98451200D01*
X70937808Y-98451200D02*
X70985427Y-98355961D01*
X70985427Y-98355961D02*
X70985427Y-97975009D01*
X70985427Y-97975009D02*
X70937808Y-97879771D01*
X70937808Y-97879771D02*
X70842570Y-97832152D01*
X70842570Y-97832152D02*
X70652094Y-97832152D01*
X70652094Y-97832152D02*
X70556856Y-97879771D01*
X70556856Y-97879771D02*
X70509237Y-97975009D01*
X70509237Y-97975009D02*
X70509237Y-98070247D01*
X70509237Y-98070247D02*
X70985427Y-98165485D01*
X69937808Y-98498819D02*
X70033046Y-98451200D01*
X70033046Y-98451200D02*
X70080665Y-98355961D01*
X70080665Y-98355961D02*
X70080665Y-97498819D01*
X68794950Y-97975009D02*
X68461617Y-97975009D01*
X68318760Y-98498819D02*
X68794950Y-98498819D01*
X68794950Y-98498819D02*
X68794950Y-97498819D01*
X68794950Y-97498819D02*
X68318760Y-97498819D01*
X67985426Y-98498819D02*
X67461617Y-97832152D01*
X67985426Y-97832152D02*
X67461617Y-98498819D01*
X67080664Y-97832152D02*
X67080664Y-98832152D01*
X67080664Y-97879771D02*
X66985426Y-97832152D01*
X66985426Y-97832152D02*
X66794950Y-97832152D01*
X66794950Y-97832152D02*
X66699712Y-97879771D01*
X66699712Y-97879771D02*
X66652093Y-97927390D01*
X66652093Y-97927390D02*
X66604474Y-98022628D01*
X66604474Y-98022628D02*
X66604474Y-98308342D01*
X66604474Y-98308342D02*
X66652093Y-98403580D01*
X66652093Y-98403580D02*
X66699712Y-98451200D01*
X66699712Y-98451200D02*
X66794950Y-98498819D01*
X66794950Y-98498819D02*
X66985426Y-98498819D01*
X66985426Y-98498819D02*
X67080664Y-98451200D01*
X65747331Y-98498819D02*
X65747331Y-97975009D01*
X65747331Y-97975009D02*
X65794950Y-97879771D01*
X65794950Y-97879771D02*
X65890188Y-97832152D01*
X65890188Y-97832152D02*
X66080664Y-97832152D01*
X66080664Y-97832152D02*
X66175902Y-97879771D01*
X65747331Y-98451200D02*
X65842569Y-98498819D01*
X65842569Y-98498819D02*
X66080664Y-98498819D01*
X66080664Y-98498819D02*
X66175902Y-98451200D01*
X66175902Y-98451200D02*
X66223521Y-98355961D01*
X66223521Y-98355961D02*
X66223521Y-98260723D01*
X66223521Y-98260723D02*
X66175902Y-98165485D01*
X66175902Y-98165485D02*
X66080664Y-98117866D01*
X66080664Y-98117866D02*
X65842569Y-98117866D01*
X65842569Y-98117866D02*
X65747331Y-98070247D01*
X65271140Y-97832152D02*
X65271140Y-98498819D01*
X65271140Y-97927390D02*
X65223521Y-97879771D01*
X65223521Y-97879771D02*
X65128283Y-97832152D01*
X65128283Y-97832152D02*
X64985426Y-97832152D01*
X64985426Y-97832152D02*
X64890188Y-97879771D01*
X64890188Y-97879771D02*
X64842569Y-97975009D01*
X64842569Y-97975009D02*
X64842569Y-98498819D01*
X63937807Y-98498819D02*
X63937807Y-97498819D01*
X63937807Y-98451200D02*
X64033045Y-98498819D01*
X64033045Y-98498819D02*
X64223521Y-98498819D01*
X64223521Y-98498819D02*
X64318759Y-98451200D01*
X64318759Y-98451200D02*
X64366378Y-98403580D01*
X64366378Y-98403580D02*
X64413997Y-98308342D01*
X64413997Y-98308342D02*
X64413997Y-98022628D01*
X64413997Y-98022628D02*
X64366378Y-97927390D01*
X64366378Y-97927390D02*
X64318759Y-97879771D01*
X64318759Y-97879771D02*
X64223521Y-97832152D01*
X64223521Y-97832152D02*
X64033045Y-97832152D01*
X64033045Y-97832152D02*
X63937807Y-97879771D01*
X63080664Y-98451200D02*
X63175902Y-98498819D01*
X63175902Y-98498819D02*
X63366378Y-98498819D01*
X63366378Y-98498819D02*
X63461616Y-98451200D01*
X63461616Y-98451200D02*
X63509235Y-98355961D01*
X63509235Y-98355961D02*
X63509235Y-97975009D01*
X63509235Y-97975009D02*
X63461616Y-97879771D01*
X63461616Y-97879771D02*
X63366378Y-97832152D01*
X63366378Y-97832152D02*
X63175902Y-97832152D01*
X63175902Y-97832152D02*
X63080664Y-97879771D01*
X63080664Y-97879771D02*
X63033045Y-97975009D01*
X63033045Y-97975009D02*
X63033045Y-98070247D01*
X63033045Y-98070247D02*
X63509235Y-98165485D01*
X62604473Y-98498819D02*
X62604473Y-97832152D01*
X62604473Y-98022628D02*
X62556854Y-97927390D01*
X62556854Y-97927390D02*
X62509235Y-97879771D01*
X62509235Y-97879771D02*
X62413997Y-97832152D01*
X62413997Y-97832152D02*
X62318759Y-97832152D01*
%TO.C,A1*%
X129725200Y-96407437D02*
X129725200Y-62117437D01*
X129725200Y-62117437D02*
X127185200Y-59577437D01*
X127185200Y-100217437D02*
X127185200Y-98947437D01*
X127185200Y-98947437D02*
X129725200Y-96407437D01*
X127185200Y-59577437D02*
X127185200Y-48401437D01*
X125661200Y-46877437D02*
X127185200Y-48401437D01*
X61145200Y-100217437D02*
X127185200Y-100217437D01*
X61145200Y-46877437D02*
X125661200Y-46877437D01*
X61145200Y-46877437D02*
X61145200Y-100217437D01*
%TD*%
M02*
