%TF.GenerationSoftware,KiCad,Pcbnew,8.0.8*%
%TF.CreationDate,2025-02-03T13:00:51-08:00*%
%TF.ProjectId,ArduinoExpander,41726475-696e-46f4-9578-70616e646572,rev?*%
%TF.SameCoordinates,Original*%
%TF.FileFunction,Soldermask,Bot*%
%TF.FilePolarity,Negative*%
%FSLAX46Y46*%
G04 Gerber Fmt 4.6, Leading zero omitted, Abs format (unit mm)*
G04 Created by KiCad (PCBNEW 8.0.8) date 2025-02-03 13:00:51*
%MOMM*%
%LPD*%
G01*
G04 APERTURE LIST*
%ADD10C,1.600000*%
%ADD11O,1.727200X1.727200*%
%ADD12R,1.727200X1.727200*%
%ADD13R,1.700000X1.700000*%
%ADD14O,1.700000X1.700000*%
%ADD15R,1.600000X1.600000*%
%ADD16O,1.600000X1.600000*%
G04 APERTURE END LIST*
D10*
%TO.C,C5*%
X124968000Y-73580000D03*
X124968000Y-68580000D03*
%TD*%
%TO.C,C1*%
X64516000Y-77724000D03*
X64516000Y-82724000D03*
%TD*%
%TO.C,C2*%
X64516000Y-55880000D03*
X64516000Y-60880000D03*
%TD*%
D11*
%TO.C,A1*%
X106865200Y-97677437D03*
X82481200Y-49417437D03*
X79941200Y-49417437D03*
X94165200Y-97677437D03*
X91625200Y-97677437D03*
D12*
X104325200Y-97677437D03*
X101785200Y-97677437D03*
X87561200Y-49417437D03*
D11*
X90101200Y-49417437D03*
X92641200Y-49417437D03*
X95181200Y-49417437D03*
X97721200Y-49417437D03*
X100261200Y-49417437D03*
X102801200Y-49417437D03*
X106865200Y-49417437D03*
X109405200Y-49417437D03*
X111945200Y-49417437D03*
X114485200Y-49417437D03*
X117025200Y-49417437D03*
X119565200Y-49417437D03*
X122105200Y-49417437D03*
X124645200Y-49417437D03*
X85021200Y-49417437D03*
X124645200Y-97677437D03*
X122105200Y-97677437D03*
X119565200Y-97677437D03*
X117025200Y-97677437D03*
X114485200Y-97677437D03*
X111945200Y-97677437D03*
X99245200Y-97677437D03*
X96705200Y-97677437D03*
X89085200Y-97677437D03*
%TD*%
D13*
%TO.C,J3*%
X121920000Y-87112000D03*
D14*
X119380000Y-87112000D03*
X116840000Y-87112000D03*
X114300000Y-87112000D03*
X111760000Y-87112000D03*
X109220000Y-87112000D03*
X106680000Y-87112000D03*
X104140000Y-87112000D03*
X101600000Y-87112000D03*
X99060000Y-87112000D03*
%TD*%
D15*
%TO.C,U1*%
X90424000Y-76200000D03*
D16*
X87884000Y-76200000D03*
X85344000Y-76200000D03*
X82804000Y-76200000D03*
X80264000Y-76200000D03*
X77724000Y-76200000D03*
X75184000Y-76200000D03*
X72644000Y-76200000D03*
X70104000Y-76200000D03*
X67564000Y-76200000D03*
X67564000Y-83820000D03*
X70104000Y-83820000D03*
X72644000Y-83820000D03*
X75184000Y-83820000D03*
X77724000Y-83820000D03*
X80264000Y-83820000D03*
X82804000Y-83820000D03*
X85344000Y-83820000D03*
X87884000Y-83820000D03*
X90424000Y-83820000D03*
%TD*%
D15*
%TO.C,U2*%
X90424000Y-54356000D03*
D16*
X87884000Y-54356000D03*
X85344000Y-54356000D03*
X82804000Y-54356000D03*
X80264000Y-54356000D03*
X77724000Y-54356000D03*
X75184000Y-54356000D03*
X72644000Y-54356000D03*
X70104000Y-54356000D03*
X67564000Y-54356000D03*
X67564000Y-61976000D03*
X70104000Y-61976000D03*
X72644000Y-61976000D03*
X75184000Y-61976000D03*
X77724000Y-61976000D03*
X80264000Y-61976000D03*
X82804000Y-61976000D03*
X85344000Y-61976000D03*
X87884000Y-61976000D03*
X90424000Y-61976000D03*
%TD*%
D15*
%TO.C,U4*%
X121920000Y-54356000D03*
D16*
X119380000Y-54356000D03*
X116840000Y-54356000D03*
X114300000Y-54356000D03*
X111760000Y-54356000D03*
X109220000Y-54356000D03*
X106680000Y-54356000D03*
X104140000Y-54356000D03*
X101600000Y-54356000D03*
X99060000Y-54356000D03*
X99060000Y-61976000D03*
X101600000Y-61976000D03*
X104140000Y-61976000D03*
X106680000Y-61976000D03*
X109220000Y-61976000D03*
X111760000Y-61976000D03*
X114300000Y-61976000D03*
X116840000Y-61976000D03*
X119380000Y-61976000D03*
X121920000Y-61976000D03*
%TD*%
D13*
%TO.C,J2*%
X90424000Y-65532000D03*
D14*
X87884000Y-65532000D03*
X85344000Y-65532000D03*
X82804000Y-65532000D03*
X80264000Y-65532000D03*
X77724000Y-65532000D03*
X75184000Y-65532000D03*
X72644000Y-65532000D03*
X70104000Y-65532000D03*
X67564000Y-65532000D03*
%TD*%
D10*
%TO.C,C3*%
X96012000Y-55616000D03*
X96012000Y-60616000D03*
%TD*%
%TO.C,C4*%
X96012000Y-77216000D03*
X96012000Y-82216000D03*
%TD*%
D15*
%TO.C,U3*%
X121920000Y-75936000D03*
D16*
X119380000Y-75936000D03*
X116840000Y-75936000D03*
X114300000Y-75936000D03*
X111760000Y-75936000D03*
X109220000Y-75936000D03*
X106680000Y-75936000D03*
X104140000Y-75936000D03*
X101600000Y-75936000D03*
X99060000Y-75936000D03*
X99060000Y-83556000D03*
X101600000Y-83556000D03*
X104140000Y-83556000D03*
X106680000Y-83556000D03*
X109220000Y-83556000D03*
X111760000Y-83556000D03*
X114300000Y-83556000D03*
X116840000Y-83556000D03*
X119380000Y-83556000D03*
X121920000Y-83556000D03*
%TD*%
D13*
%TO.C,J4*%
X121920000Y-65268000D03*
D14*
X119380000Y-65268000D03*
X116840000Y-65268000D03*
X114300000Y-65268000D03*
X111760000Y-65268000D03*
X109220000Y-65268000D03*
X106680000Y-65268000D03*
X104140000Y-65268000D03*
X101600000Y-65268000D03*
X99060000Y-65268000D03*
%TD*%
D13*
%TO.C,J5*%
X128016000Y-68580000D03*
D14*
X128016000Y-71120000D03*
X128016000Y-73660000D03*
X128016000Y-76200000D03*
X128016000Y-78740000D03*
%TD*%
D13*
%TO.C,J1*%
X90424000Y-87112000D03*
D14*
X87884000Y-87112000D03*
X85344000Y-87112000D03*
X82804000Y-87112000D03*
X80264000Y-87112000D03*
X77724000Y-87112000D03*
X75184000Y-87112000D03*
X72644000Y-87112000D03*
X70104000Y-87112000D03*
X67564000Y-87112000D03*
%TD*%
M02*
