%TF.GenerationSoftware,KiCad,Pcbnew,8.0.8*%
%TF.CreationDate,2025-02-03T13:00:51-08:00*%
%TF.ProjectId,ArduinoExpander,41726475-696e-46f4-9578-70616e646572,rev?*%
%TF.SameCoordinates,Original*%
%TF.FileFunction,Legend,Top*%
%TF.FilePolarity,Positive*%
%FSLAX46Y46*%
G04 Gerber Fmt 4.6, Leading zero omitted, Abs format (unit mm)*
G04 Created by KiCad (PCBNEW 8.0.8) date 2025-02-03 13:00:51*
%MOMM*%
%LPD*%
G01*
G04 APERTURE LIST*
%ADD10C,0.150000*%
%ADD11C,0.120000*%
G04 APERTURE END LIST*
D10*
X123127580Y-71246666D02*
X123175200Y-71294285D01*
X123175200Y-71294285D02*
X123222819Y-71437142D01*
X123222819Y-71437142D02*
X123222819Y-71532380D01*
X123222819Y-71532380D02*
X123175200Y-71675237D01*
X123175200Y-71675237D02*
X123079961Y-71770475D01*
X123079961Y-71770475D02*
X122984723Y-71818094D01*
X122984723Y-71818094D02*
X122794247Y-71865713D01*
X122794247Y-71865713D02*
X122651390Y-71865713D01*
X122651390Y-71865713D02*
X122460914Y-71818094D01*
X122460914Y-71818094D02*
X122365676Y-71770475D01*
X122365676Y-71770475D02*
X122270438Y-71675237D01*
X122270438Y-71675237D02*
X122222819Y-71532380D01*
X122222819Y-71532380D02*
X122222819Y-71437142D01*
X122222819Y-71437142D02*
X122270438Y-71294285D01*
X122270438Y-71294285D02*
X122318057Y-71246666D01*
X122222819Y-70341904D02*
X122222819Y-70818094D01*
X122222819Y-70818094D02*
X122699009Y-70865713D01*
X122699009Y-70865713D02*
X122651390Y-70818094D01*
X122651390Y-70818094D02*
X122603771Y-70722856D01*
X122603771Y-70722856D02*
X122603771Y-70484761D01*
X122603771Y-70484761D02*
X122651390Y-70389523D01*
X122651390Y-70389523D02*
X122699009Y-70341904D01*
X122699009Y-70341904D02*
X122794247Y-70294285D01*
X122794247Y-70294285D02*
X123032342Y-70294285D01*
X123032342Y-70294285D02*
X123127580Y-70341904D01*
X123127580Y-70341904D02*
X123175200Y-70389523D01*
X123175200Y-70389523D02*
X123222819Y-70484761D01*
X123222819Y-70484761D02*
X123222819Y-70722856D01*
X123222819Y-70722856D02*
X123175200Y-70818094D01*
X123175200Y-70818094D02*
X123127580Y-70865713D01*
X64875580Y-75604666D02*
X64923200Y-75652285D01*
X64923200Y-75652285D02*
X64970819Y-75795142D01*
X64970819Y-75795142D02*
X64970819Y-75890380D01*
X64970819Y-75890380D02*
X64923200Y-76033237D01*
X64923200Y-76033237D02*
X64827961Y-76128475D01*
X64827961Y-76128475D02*
X64732723Y-76176094D01*
X64732723Y-76176094D02*
X64542247Y-76223713D01*
X64542247Y-76223713D02*
X64399390Y-76223713D01*
X64399390Y-76223713D02*
X64208914Y-76176094D01*
X64208914Y-76176094D02*
X64113676Y-76128475D01*
X64113676Y-76128475D02*
X64018438Y-76033237D01*
X64018438Y-76033237D02*
X63970819Y-75890380D01*
X63970819Y-75890380D02*
X63970819Y-75795142D01*
X63970819Y-75795142D02*
X64018438Y-75652285D01*
X64018438Y-75652285D02*
X64066057Y-75604666D01*
X64970819Y-74652285D02*
X64970819Y-75223713D01*
X64970819Y-74937999D02*
X63970819Y-74937999D01*
X63970819Y-74937999D02*
X64113676Y-75033237D01*
X64113676Y-75033237D02*
X64208914Y-75128475D01*
X64208914Y-75128475D02*
X64256533Y-75223713D01*
X90116819Y-72914166D02*
X89640628Y-73247499D01*
X90116819Y-73485594D02*
X89116819Y-73485594D01*
X89116819Y-73485594D02*
X89116819Y-73104642D01*
X89116819Y-73104642D02*
X89164438Y-73009404D01*
X89164438Y-73009404D02*
X89212057Y-72961785D01*
X89212057Y-72961785D02*
X89307295Y-72914166D01*
X89307295Y-72914166D02*
X89450152Y-72914166D01*
X89450152Y-72914166D02*
X89545390Y-72961785D01*
X89545390Y-72961785D02*
X89593009Y-73009404D01*
X89593009Y-73009404D02*
X89640628Y-73104642D01*
X89640628Y-73104642D02*
X89640628Y-73485594D01*
X90116819Y-72437975D02*
X90116819Y-72247499D01*
X90116819Y-72247499D02*
X90069200Y-72152261D01*
X90069200Y-72152261D02*
X90021580Y-72104642D01*
X90021580Y-72104642D02*
X89878723Y-72009404D01*
X89878723Y-72009404D02*
X89688247Y-71961785D01*
X89688247Y-71961785D02*
X89307295Y-71961785D01*
X89307295Y-71961785D02*
X89212057Y-72009404D01*
X89212057Y-72009404D02*
X89164438Y-72057023D01*
X89164438Y-72057023D02*
X89116819Y-72152261D01*
X89116819Y-72152261D02*
X89116819Y-72342737D01*
X89116819Y-72342737D02*
X89164438Y-72437975D01*
X89164438Y-72437975D02*
X89212057Y-72485594D01*
X89212057Y-72485594D02*
X89307295Y-72533213D01*
X89307295Y-72533213D02*
X89545390Y-72533213D01*
X89545390Y-72533213D02*
X89640628Y-72485594D01*
X89640628Y-72485594D02*
X89688247Y-72437975D01*
X89688247Y-72437975D02*
X89735866Y-72342737D01*
X89735866Y-72342737D02*
X89735866Y-72152261D01*
X89735866Y-72152261D02*
X89688247Y-72057023D01*
X89688247Y-72057023D02*
X89640628Y-72009404D01*
X89640628Y-72009404D02*
X89545390Y-71961785D01*
X64875580Y-63412666D02*
X64923200Y-63460285D01*
X64923200Y-63460285D02*
X64970819Y-63603142D01*
X64970819Y-63603142D02*
X64970819Y-63698380D01*
X64970819Y-63698380D02*
X64923200Y-63841237D01*
X64923200Y-63841237D02*
X64827961Y-63936475D01*
X64827961Y-63936475D02*
X64732723Y-63984094D01*
X64732723Y-63984094D02*
X64542247Y-64031713D01*
X64542247Y-64031713D02*
X64399390Y-64031713D01*
X64399390Y-64031713D02*
X64208914Y-63984094D01*
X64208914Y-63984094D02*
X64113676Y-63936475D01*
X64113676Y-63936475D02*
X64018438Y-63841237D01*
X64018438Y-63841237D02*
X63970819Y-63698380D01*
X63970819Y-63698380D02*
X63970819Y-63603142D01*
X63970819Y-63603142D02*
X64018438Y-63460285D01*
X64018438Y-63460285D02*
X64066057Y-63412666D01*
X64066057Y-63031713D02*
X64018438Y-62984094D01*
X64018438Y-62984094D02*
X63970819Y-62888856D01*
X63970819Y-62888856D02*
X63970819Y-62650761D01*
X63970819Y-62650761D02*
X64018438Y-62555523D01*
X64018438Y-62555523D02*
X64066057Y-62507904D01*
X64066057Y-62507904D02*
X64161295Y-62460285D01*
X64161295Y-62460285D02*
X64256533Y-62460285D01*
X64256533Y-62460285D02*
X64399390Y-62507904D01*
X64399390Y-62507904D02*
X64970819Y-63079332D01*
X64970819Y-63079332D02*
X64970819Y-62460285D01*
X92133200Y-67049017D02*
X92180819Y-67096637D01*
X92180819Y-67096637D02*
X92133200Y-67144256D01*
X92133200Y-67144256D02*
X92085581Y-67096637D01*
X92085581Y-67096637D02*
X92133200Y-67049017D01*
X92133200Y-67049017D02*
X92133200Y-67144256D01*
X62667998Y-98213104D02*
X63144188Y-98213104D01*
X62572760Y-98498819D02*
X62906093Y-97498819D01*
X62906093Y-97498819D02*
X63239426Y-98498819D01*
X63572760Y-98498819D02*
X63572760Y-97832152D01*
X63572760Y-98022628D02*
X63620379Y-97927390D01*
X63620379Y-97927390D02*
X63667998Y-97879771D01*
X63667998Y-97879771D02*
X63763236Y-97832152D01*
X63763236Y-97832152D02*
X63858474Y-97832152D01*
X64620379Y-98498819D02*
X64620379Y-97498819D01*
X64620379Y-98451200D02*
X64525141Y-98498819D01*
X64525141Y-98498819D02*
X64334665Y-98498819D01*
X64334665Y-98498819D02*
X64239427Y-98451200D01*
X64239427Y-98451200D02*
X64191808Y-98403580D01*
X64191808Y-98403580D02*
X64144189Y-98308342D01*
X64144189Y-98308342D02*
X64144189Y-98022628D01*
X64144189Y-98022628D02*
X64191808Y-97927390D01*
X64191808Y-97927390D02*
X64239427Y-97879771D01*
X64239427Y-97879771D02*
X64334665Y-97832152D01*
X64334665Y-97832152D02*
X64525141Y-97832152D01*
X64525141Y-97832152D02*
X64620379Y-97879771D01*
X65525141Y-97832152D02*
X65525141Y-98498819D01*
X65096570Y-97832152D02*
X65096570Y-98355961D01*
X65096570Y-98355961D02*
X65144189Y-98451200D01*
X65144189Y-98451200D02*
X65239427Y-98498819D01*
X65239427Y-98498819D02*
X65382284Y-98498819D01*
X65382284Y-98498819D02*
X65477522Y-98451200D01*
X65477522Y-98451200D02*
X65525141Y-98403580D01*
X66001332Y-98498819D02*
X66001332Y-97832152D01*
X66001332Y-97498819D02*
X65953713Y-97546438D01*
X65953713Y-97546438D02*
X66001332Y-97594057D01*
X66001332Y-97594057D02*
X66048951Y-97546438D01*
X66048951Y-97546438D02*
X66001332Y-97498819D01*
X66001332Y-97498819D02*
X66001332Y-97594057D01*
X66477522Y-97832152D02*
X66477522Y-98498819D01*
X66477522Y-97927390D02*
X66525141Y-97879771D01*
X66525141Y-97879771D02*
X66620379Y-97832152D01*
X66620379Y-97832152D02*
X66763236Y-97832152D01*
X66763236Y-97832152D02*
X66858474Y-97879771D01*
X66858474Y-97879771D02*
X66906093Y-97975009D01*
X66906093Y-97975009D02*
X66906093Y-98498819D01*
X67525141Y-98498819D02*
X67429903Y-98451200D01*
X67429903Y-98451200D02*
X67382284Y-98403580D01*
X67382284Y-98403580D02*
X67334665Y-98308342D01*
X67334665Y-98308342D02*
X67334665Y-98022628D01*
X67334665Y-98022628D02*
X67382284Y-97927390D01*
X67382284Y-97927390D02*
X67429903Y-97879771D01*
X67429903Y-97879771D02*
X67525141Y-97832152D01*
X67525141Y-97832152D02*
X67667998Y-97832152D01*
X67667998Y-97832152D02*
X67763236Y-97879771D01*
X67763236Y-97879771D02*
X67810855Y-97927390D01*
X67810855Y-97927390D02*
X67858474Y-98022628D01*
X67858474Y-98022628D02*
X67858474Y-98308342D01*
X67858474Y-98308342D02*
X67810855Y-98403580D01*
X67810855Y-98403580D02*
X67763236Y-98451200D01*
X67763236Y-98451200D02*
X67667998Y-98498819D01*
X67667998Y-98498819D02*
X67525141Y-98498819D01*
X69048951Y-97498819D02*
X69048951Y-98308342D01*
X69048951Y-98308342D02*
X69096570Y-98403580D01*
X69096570Y-98403580D02*
X69144189Y-98451200D01*
X69144189Y-98451200D02*
X69239427Y-98498819D01*
X69239427Y-98498819D02*
X69429903Y-98498819D01*
X69429903Y-98498819D02*
X69525141Y-98451200D01*
X69525141Y-98451200D02*
X69572760Y-98403580D01*
X69572760Y-98403580D02*
X69620379Y-98308342D01*
X69620379Y-98308342D02*
X69620379Y-97498819D01*
X70096570Y-97832152D02*
X70096570Y-98498819D01*
X70096570Y-97927390D02*
X70144189Y-97879771D01*
X70144189Y-97879771D02*
X70239427Y-97832152D01*
X70239427Y-97832152D02*
X70382284Y-97832152D01*
X70382284Y-97832152D02*
X70477522Y-97879771D01*
X70477522Y-97879771D02*
X70525141Y-97975009D01*
X70525141Y-97975009D02*
X70525141Y-98498819D01*
X71144189Y-98498819D02*
X71048951Y-98451200D01*
X71048951Y-98451200D02*
X71001332Y-98403580D01*
X71001332Y-98403580D02*
X70953713Y-98308342D01*
X70953713Y-98308342D02*
X70953713Y-98022628D01*
X70953713Y-98022628D02*
X71001332Y-97927390D01*
X71001332Y-97927390D02*
X71048951Y-97879771D01*
X71048951Y-97879771D02*
X71144189Y-97832152D01*
X71144189Y-97832152D02*
X71287046Y-97832152D01*
X71287046Y-97832152D02*
X71382284Y-97879771D01*
X71382284Y-97879771D02*
X71429903Y-97927390D01*
X71429903Y-97927390D02*
X71477522Y-98022628D01*
X71477522Y-98022628D02*
X71477522Y-98308342D01*
X71477522Y-98308342D02*
X71429903Y-98403580D01*
X71429903Y-98403580D02*
X71382284Y-98451200D01*
X71382284Y-98451200D02*
X71287046Y-98498819D01*
X71287046Y-98498819D02*
X71144189Y-98498819D01*
X72667999Y-98498819D02*
X72667999Y-97498819D01*
X72667999Y-97498819D02*
X73048951Y-97498819D01*
X73048951Y-97498819D02*
X73144189Y-97546438D01*
X73144189Y-97546438D02*
X73191808Y-97594057D01*
X73191808Y-97594057D02*
X73239427Y-97689295D01*
X73239427Y-97689295D02*
X73239427Y-97832152D01*
X73239427Y-97832152D02*
X73191808Y-97927390D01*
X73191808Y-97927390D02*
X73144189Y-97975009D01*
X73144189Y-97975009D02*
X73048951Y-98022628D01*
X73048951Y-98022628D02*
X72667999Y-98022628D01*
X74096570Y-98498819D02*
X74096570Y-97975009D01*
X74096570Y-97975009D02*
X74048951Y-97879771D01*
X74048951Y-97879771D02*
X73953713Y-97832152D01*
X73953713Y-97832152D02*
X73763237Y-97832152D01*
X73763237Y-97832152D02*
X73667999Y-97879771D01*
X74096570Y-98451200D02*
X74001332Y-98498819D01*
X74001332Y-98498819D02*
X73763237Y-98498819D01*
X73763237Y-98498819D02*
X73667999Y-98451200D01*
X73667999Y-98451200D02*
X73620380Y-98355961D01*
X73620380Y-98355961D02*
X73620380Y-98260723D01*
X73620380Y-98260723D02*
X73667999Y-98165485D01*
X73667999Y-98165485D02*
X73763237Y-98117866D01*
X73763237Y-98117866D02*
X74001332Y-98117866D01*
X74001332Y-98117866D02*
X74096570Y-98070247D01*
X74572761Y-98498819D02*
X74572761Y-97832152D01*
X74572761Y-98022628D02*
X74620380Y-97927390D01*
X74620380Y-97927390D02*
X74667999Y-97879771D01*
X74667999Y-97879771D02*
X74763237Y-97832152D01*
X74763237Y-97832152D02*
X74858475Y-97832152D01*
X75620380Y-98498819D02*
X75620380Y-97975009D01*
X75620380Y-97975009D02*
X75572761Y-97879771D01*
X75572761Y-97879771D02*
X75477523Y-97832152D01*
X75477523Y-97832152D02*
X75287047Y-97832152D01*
X75287047Y-97832152D02*
X75191809Y-97879771D01*
X75620380Y-98451200D02*
X75525142Y-98498819D01*
X75525142Y-98498819D02*
X75287047Y-98498819D01*
X75287047Y-98498819D02*
X75191809Y-98451200D01*
X75191809Y-98451200D02*
X75144190Y-98355961D01*
X75144190Y-98355961D02*
X75144190Y-98260723D01*
X75144190Y-98260723D02*
X75191809Y-98165485D01*
X75191809Y-98165485D02*
X75287047Y-98117866D01*
X75287047Y-98117866D02*
X75525142Y-98117866D01*
X75525142Y-98117866D02*
X75620380Y-98070247D01*
X76239428Y-98498819D02*
X76144190Y-98451200D01*
X76144190Y-98451200D02*
X76096571Y-98355961D01*
X76096571Y-98355961D02*
X76096571Y-97498819D01*
X76763238Y-98498819D02*
X76668000Y-98451200D01*
X76668000Y-98451200D02*
X76620381Y-98355961D01*
X76620381Y-98355961D02*
X76620381Y-97498819D01*
X77525143Y-98451200D02*
X77429905Y-98498819D01*
X77429905Y-98498819D02*
X77239429Y-98498819D01*
X77239429Y-98498819D02*
X77144191Y-98451200D01*
X77144191Y-98451200D02*
X77096572Y-98355961D01*
X77096572Y-98355961D02*
X77096572Y-97975009D01*
X77096572Y-97975009D02*
X77144191Y-97879771D01*
X77144191Y-97879771D02*
X77239429Y-97832152D01*
X77239429Y-97832152D02*
X77429905Y-97832152D01*
X77429905Y-97832152D02*
X77525143Y-97879771D01*
X77525143Y-97879771D02*
X77572762Y-97975009D01*
X77572762Y-97975009D02*
X77572762Y-98070247D01*
X77572762Y-98070247D02*
X77096572Y-98165485D01*
X78144191Y-98498819D02*
X78048953Y-98451200D01*
X78048953Y-98451200D02*
X78001334Y-98355961D01*
X78001334Y-98355961D02*
X78001334Y-97498819D01*
X79287049Y-97975009D02*
X79620382Y-97975009D01*
X79763239Y-98498819D02*
X79287049Y-98498819D01*
X79287049Y-98498819D02*
X79287049Y-97498819D01*
X79287049Y-97498819D02*
X79763239Y-97498819D01*
X80096573Y-98498819D02*
X80620382Y-97832152D01*
X80096573Y-97832152D02*
X80620382Y-98498819D01*
X81001335Y-97832152D02*
X81001335Y-98832152D01*
X81001335Y-97879771D02*
X81096573Y-97832152D01*
X81096573Y-97832152D02*
X81287049Y-97832152D01*
X81287049Y-97832152D02*
X81382287Y-97879771D01*
X81382287Y-97879771D02*
X81429906Y-97927390D01*
X81429906Y-97927390D02*
X81477525Y-98022628D01*
X81477525Y-98022628D02*
X81477525Y-98308342D01*
X81477525Y-98308342D02*
X81429906Y-98403580D01*
X81429906Y-98403580D02*
X81382287Y-98451200D01*
X81382287Y-98451200D02*
X81287049Y-98498819D01*
X81287049Y-98498819D02*
X81096573Y-98498819D01*
X81096573Y-98498819D02*
X81001335Y-98451200D01*
X82334668Y-98498819D02*
X82334668Y-97975009D01*
X82334668Y-97975009D02*
X82287049Y-97879771D01*
X82287049Y-97879771D02*
X82191811Y-97832152D01*
X82191811Y-97832152D02*
X82001335Y-97832152D01*
X82001335Y-97832152D02*
X81906097Y-97879771D01*
X82334668Y-98451200D02*
X82239430Y-98498819D01*
X82239430Y-98498819D02*
X82001335Y-98498819D01*
X82001335Y-98498819D02*
X81906097Y-98451200D01*
X81906097Y-98451200D02*
X81858478Y-98355961D01*
X81858478Y-98355961D02*
X81858478Y-98260723D01*
X81858478Y-98260723D02*
X81906097Y-98165485D01*
X81906097Y-98165485D02*
X82001335Y-98117866D01*
X82001335Y-98117866D02*
X82239430Y-98117866D01*
X82239430Y-98117866D02*
X82334668Y-98070247D01*
X82810859Y-97832152D02*
X82810859Y-98498819D01*
X82810859Y-97927390D02*
X82858478Y-97879771D01*
X82858478Y-97879771D02*
X82953716Y-97832152D01*
X82953716Y-97832152D02*
X83096573Y-97832152D01*
X83096573Y-97832152D02*
X83191811Y-97879771D01*
X83191811Y-97879771D02*
X83239430Y-97975009D01*
X83239430Y-97975009D02*
X83239430Y-98498819D01*
X84144192Y-98498819D02*
X84144192Y-97498819D01*
X84144192Y-98451200D02*
X84048954Y-98498819D01*
X84048954Y-98498819D02*
X83858478Y-98498819D01*
X83858478Y-98498819D02*
X83763240Y-98451200D01*
X83763240Y-98451200D02*
X83715621Y-98403580D01*
X83715621Y-98403580D02*
X83668002Y-98308342D01*
X83668002Y-98308342D02*
X83668002Y-98022628D01*
X83668002Y-98022628D02*
X83715621Y-97927390D01*
X83715621Y-97927390D02*
X83763240Y-97879771D01*
X83763240Y-97879771D02*
X83858478Y-97832152D01*
X83858478Y-97832152D02*
X84048954Y-97832152D01*
X84048954Y-97832152D02*
X84144192Y-97879771D01*
X85001335Y-98451200D02*
X84906097Y-98498819D01*
X84906097Y-98498819D02*
X84715621Y-98498819D01*
X84715621Y-98498819D02*
X84620383Y-98451200D01*
X84620383Y-98451200D02*
X84572764Y-98355961D01*
X84572764Y-98355961D02*
X84572764Y-97975009D01*
X84572764Y-97975009D02*
X84620383Y-97879771D01*
X84620383Y-97879771D02*
X84715621Y-97832152D01*
X84715621Y-97832152D02*
X84906097Y-97832152D01*
X84906097Y-97832152D02*
X85001335Y-97879771D01*
X85001335Y-97879771D02*
X85048954Y-97975009D01*
X85048954Y-97975009D02*
X85048954Y-98070247D01*
X85048954Y-98070247D02*
X84572764Y-98165485D01*
X85477526Y-98498819D02*
X85477526Y-97832152D01*
X85477526Y-98022628D02*
X85525145Y-97927390D01*
X85525145Y-97927390D02*
X85572764Y-97879771D01*
X85572764Y-97879771D02*
X85668002Y-97832152D01*
X85668002Y-97832152D02*
X85763240Y-97832152D01*
X123704819Y-87445333D02*
X124419104Y-87445333D01*
X124419104Y-87445333D02*
X124561961Y-87492952D01*
X124561961Y-87492952D02*
X124657200Y-87588190D01*
X124657200Y-87588190D02*
X124704819Y-87731047D01*
X124704819Y-87731047D02*
X124704819Y-87826285D01*
X123704819Y-87064380D02*
X123704819Y-86445333D01*
X123704819Y-86445333D02*
X124085771Y-86778666D01*
X124085771Y-86778666D02*
X124085771Y-86635809D01*
X124085771Y-86635809D02*
X124133390Y-86540571D01*
X124133390Y-86540571D02*
X124181009Y-86492952D01*
X124181009Y-86492952D02*
X124276247Y-86445333D01*
X124276247Y-86445333D02*
X124514342Y-86445333D01*
X124514342Y-86445333D02*
X124609580Y-86492952D01*
X124609580Y-86492952D02*
X124657200Y-86540571D01*
X124657200Y-86540571D02*
X124704819Y-86635809D01*
X124704819Y-86635809D02*
X124704819Y-86921523D01*
X124704819Y-86921523D02*
X124657200Y-87016761D01*
X124657200Y-87016761D02*
X124609580Y-87064380D01*
X90116819Y-91484594D02*
X89116819Y-91484594D01*
X89116819Y-91484594D02*
X89116819Y-91246499D01*
X89116819Y-91246499D02*
X89164438Y-91103642D01*
X89164438Y-91103642D02*
X89259676Y-91008404D01*
X89259676Y-91008404D02*
X89354914Y-90960785D01*
X89354914Y-90960785D02*
X89545390Y-90913166D01*
X89545390Y-90913166D02*
X89688247Y-90913166D01*
X89688247Y-90913166D02*
X89878723Y-90960785D01*
X89878723Y-90960785D02*
X89973961Y-91008404D01*
X89973961Y-91008404D02*
X90069200Y-91103642D01*
X90069200Y-91103642D02*
X90116819Y-91246499D01*
X90116819Y-91246499D02*
X90116819Y-91484594D01*
X90116819Y-89960785D02*
X90116819Y-90532213D01*
X90116819Y-90246499D02*
X89116819Y-90246499D01*
X89116819Y-90246499D02*
X89259676Y-90341737D01*
X89259676Y-90341737D02*
X89354914Y-90436975D01*
X89354914Y-90436975D02*
X89402533Y-90532213D01*
X92208819Y-80771904D02*
X93018342Y-80771904D01*
X93018342Y-80771904D02*
X93113580Y-80724285D01*
X93113580Y-80724285D02*
X93161200Y-80676666D01*
X93161200Y-80676666D02*
X93208819Y-80581428D01*
X93208819Y-80581428D02*
X93208819Y-80390952D01*
X93208819Y-80390952D02*
X93161200Y-80295714D01*
X93161200Y-80295714D02*
X93113580Y-80248095D01*
X93113580Y-80248095D02*
X93018342Y-80200476D01*
X93018342Y-80200476D02*
X92208819Y-80200476D01*
X93208819Y-79200476D02*
X93208819Y-79771904D01*
X93208819Y-79486190D02*
X92208819Y-79486190D01*
X92208819Y-79486190D02*
X92351676Y-79581428D01*
X92351676Y-79581428D02*
X92446914Y-79676666D01*
X92446914Y-79676666D02*
X92494533Y-79771904D01*
X92418819Y-58927904D02*
X93228342Y-58927904D01*
X93228342Y-58927904D02*
X93323580Y-58880285D01*
X93323580Y-58880285D02*
X93371200Y-58832666D01*
X93371200Y-58832666D02*
X93418819Y-58737428D01*
X93418819Y-58737428D02*
X93418819Y-58546952D01*
X93418819Y-58546952D02*
X93371200Y-58451714D01*
X93371200Y-58451714D02*
X93323580Y-58404095D01*
X93323580Y-58404095D02*
X93228342Y-58356476D01*
X93228342Y-58356476D02*
X92418819Y-58356476D01*
X92514057Y-57927904D02*
X92466438Y-57880285D01*
X92466438Y-57880285D02*
X92418819Y-57785047D01*
X92418819Y-57785047D02*
X92418819Y-57546952D01*
X92418819Y-57546952D02*
X92466438Y-57451714D01*
X92466438Y-57451714D02*
X92514057Y-57404095D01*
X92514057Y-57404095D02*
X92609295Y-57356476D01*
X92609295Y-57356476D02*
X92704533Y-57356476D01*
X92704533Y-57356476D02*
X92847390Y-57404095D01*
X92847390Y-57404095D02*
X93418819Y-57975523D01*
X93418819Y-57975523D02*
X93418819Y-57356476D01*
X123704819Y-58927904D02*
X124514342Y-58927904D01*
X124514342Y-58927904D02*
X124609580Y-58880285D01*
X124609580Y-58880285D02*
X124657200Y-58832666D01*
X124657200Y-58832666D02*
X124704819Y-58737428D01*
X124704819Y-58737428D02*
X124704819Y-58546952D01*
X124704819Y-58546952D02*
X124657200Y-58451714D01*
X124657200Y-58451714D02*
X124609580Y-58404095D01*
X124609580Y-58404095D02*
X124514342Y-58356476D01*
X124514342Y-58356476D02*
X123704819Y-58356476D01*
X124038152Y-57451714D02*
X124704819Y-57451714D01*
X123657200Y-57689809D02*
X124371485Y-57927904D01*
X124371485Y-57927904D02*
X124371485Y-57308857D01*
X68780819Y-91484594D02*
X67780819Y-91484594D01*
X67780819Y-91484594D02*
X67780819Y-91246499D01*
X67780819Y-91246499D02*
X67828438Y-91103642D01*
X67828438Y-91103642D02*
X67923676Y-91008404D01*
X67923676Y-91008404D02*
X68018914Y-90960785D01*
X68018914Y-90960785D02*
X68209390Y-90913166D01*
X68209390Y-90913166D02*
X68352247Y-90913166D01*
X68352247Y-90913166D02*
X68542723Y-90960785D01*
X68542723Y-90960785D02*
X68637961Y-91008404D01*
X68637961Y-91008404D02*
X68733200Y-91103642D01*
X68733200Y-91103642D02*
X68780819Y-91246499D01*
X68780819Y-91246499D02*
X68780819Y-91484594D01*
X68209390Y-90341737D02*
X68161771Y-90436975D01*
X68161771Y-90436975D02*
X68114152Y-90484594D01*
X68114152Y-90484594D02*
X68018914Y-90532213D01*
X68018914Y-90532213D02*
X67971295Y-90532213D01*
X67971295Y-90532213D02*
X67876057Y-90484594D01*
X67876057Y-90484594D02*
X67828438Y-90436975D01*
X67828438Y-90436975D02*
X67780819Y-90341737D01*
X67780819Y-90341737D02*
X67780819Y-90151261D01*
X67780819Y-90151261D02*
X67828438Y-90056023D01*
X67828438Y-90056023D02*
X67876057Y-90008404D01*
X67876057Y-90008404D02*
X67971295Y-89960785D01*
X67971295Y-89960785D02*
X68018914Y-89960785D01*
X68018914Y-89960785D02*
X68114152Y-90008404D01*
X68114152Y-90008404D02*
X68161771Y-90056023D01*
X68161771Y-90056023D02*
X68209390Y-90151261D01*
X68209390Y-90151261D02*
X68209390Y-90341737D01*
X68209390Y-90341737D02*
X68257009Y-90436975D01*
X68257009Y-90436975D02*
X68304628Y-90484594D01*
X68304628Y-90484594D02*
X68399866Y-90532213D01*
X68399866Y-90532213D02*
X68590342Y-90532213D01*
X68590342Y-90532213D02*
X68685580Y-90484594D01*
X68685580Y-90484594D02*
X68733200Y-90436975D01*
X68733200Y-90436975D02*
X68780819Y-90341737D01*
X68780819Y-90341737D02*
X68780819Y-90151261D01*
X68780819Y-90151261D02*
X68733200Y-90056023D01*
X68733200Y-90056023D02*
X68685580Y-90008404D01*
X68685580Y-90008404D02*
X68590342Y-89960785D01*
X68590342Y-89960785D02*
X68399866Y-89960785D01*
X68399866Y-89960785D02*
X68304628Y-90008404D01*
X68304628Y-90008404D02*
X68257009Y-90056023D01*
X68257009Y-90056023D02*
X68209390Y-90151261D01*
X121612819Y-95027357D02*
X121136628Y-95360690D01*
X121612819Y-95598785D02*
X120612819Y-95598785D01*
X120612819Y-95598785D02*
X120612819Y-95217833D01*
X120612819Y-95217833D02*
X120660438Y-95122595D01*
X120660438Y-95122595D02*
X120708057Y-95074976D01*
X120708057Y-95074976D02*
X120803295Y-95027357D01*
X120803295Y-95027357D02*
X120946152Y-95027357D01*
X120946152Y-95027357D02*
X121041390Y-95074976D01*
X121041390Y-95074976D02*
X121089009Y-95122595D01*
X121089009Y-95122595D02*
X121136628Y-95217833D01*
X121136628Y-95217833D02*
X121136628Y-95598785D01*
X121612819Y-94074976D02*
X121612819Y-94646404D01*
X121612819Y-94360690D02*
X120612819Y-94360690D01*
X120612819Y-94360690D02*
X120755676Y-94455928D01*
X120755676Y-94455928D02*
X120850914Y-94551166D01*
X120850914Y-94551166D02*
X120898533Y-94646404D01*
X120612819Y-93741642D02*
X120612819Y-93074976D01*
X120612819Y-93074976D02*
X121612819Y-93503547D01*
X92208819Y-65865333D02*
X92923104Y-65865333D01*
X92923104Y-65865333D02*
X93065961Y-65912952D01*
X93065961Y-65912952D02*
X93161200Y-66008190D01*
X93161200Y-66008190D02*
X93208819Y-66151047D01*
X93208819Y-66151047D02*
X93208819Y-66246285D01*
X92304057Y-65436761D02*
X92256438Y-65389142D01*
X92256438Y-65389142D02*
X92208819Y-65293904D01*
X92208819Y-65293904D02*
X92208819Y-65055809D01*
X92208819Y-65055809D02*
X92256438Y-64960571D01*
X92256438Y-64960571D02*
X92304057Y-64912952D01*
X92304057Y-64912952D02*
X92399295Y-64865333D01*
X92399295Y-64865333D02*
X92494533Y-64865333D01*
X92494533Y-64865333D02*
X92637390Y-64912952D01*
X92637390Y-64912952D02*
X93208819Y-65484380D01*
X93208819Y-65484380D02*
X93208819Y-64865333D01*
X100276819Y-92146285D02*
X99276819Y-92146285D01*
X99276819Y-92146285D02*
X99276819Y-91908190D01*
X99276819Y-91908190D02*
X99324438Y-91765333D01*
X99324438Y-91765333D02*
X99419676Y-91670095D01*
X99419676Y-91670095D02*
X99514914Y-91622476D01*
X99514914Y-91622476D02*
X99705390Y-91574857D01*
X99705390Y-91574857D02*
X99848247Y-91574857D01*
X99848247Y-91574857D02*
X100038723Y-91622476D01*
X100038723Y-91622476D02*
X100133961Y-91670095D01*
X100133961Y-91670095D02*
X100229200Y-91765333D01*
X100229200Y-91765333D02*
X100276819Y-91908190D01*
X100276819Y-91908190D02*
X100276819Y-92146285D01*
X99372057Y-91193904D02*
X99324438Y-91146285D01*
X99324438Y-91146285D02*
X99276819Y-91051047D01*
X99276819Y-91051047D02*
X99276819Y-90812952D01*
X99276819Y-90812952D02*
X99324438Y-90717714D01*
X99324438Y-90717714D02*
X99372057Y-90670095D01*
X99372057Y-90670095D02*
X99467295Y-90622476D01*
X99467295Y-90622476D02*
X99562533Y-90622476D01*
X99562533Y-90622476D02*
X99705390Y-90670095D01*
X99705390Y-90670095D02*
X100276819Y-91241523D01*
X100276819Y-91241523D02*
X100276819Y-90622476D01*
X99610152Y-89765333D02*
X100276819Y-89765333D01*
X99229200Y-90003428D02*
X99943485Y-90241523D01*
X99943485Y-90241523D02*
X99943485Y-89622476D01*
X96371580Y-62904666D02*
X96419200Y-62952285D01*
X96419200Y-62952285D02*
X96466819Y-63095142D01*
X96466819Y-63095142D02*
X96466819Y-63190380D01*
X96466819Y-63190380D02*
X96419200Y-63333237D01*
X96419200Y-63333237D02*
X96323961Y-63428475D01*
X96323961Y-63428475D02*
X96228723Y-63476094D01*
X96228723Y-63476094D02*
X96038247Y-63523713D01*
X96038247Y-63523713D02*
X95895390Y-63523713D01*
X95895390Y-63523713D02*
X95704914Y-63476094D01*
X95704914Y-63476094D02*
X95609676Y-63428475D01*
X95609676Y-63428475D02*
X95514438Y-63333237D01*
X95514438Y-63333237D02*
X95466819Y-63190380D01*
X95466819Y-63190380D02*
X95466819Y-63095142D01*
X95466819Y-63095142D02*
X95514438Y-62952285D01*
X95514438Y-62952285D02*
X95562057Y-62904666D01*
X95466819Y-62571332D02*
X95466819Y-61952285D01*
X95466819Y-61952285D02*
X95847771Y-62285618D01*
X95847771Y-62285618D02*
X95847771Y-62142761D01*
X95847771Y-62142761D02*
X95895390Y-62047523D01*
X95895390Y-62047523D02*
X95943009Y-61999904D01*
X95943009Y-61999904D02*
X96038247Y-61952285D01*
X96038247Y-61952285D02*
X96276342Y-61952285D01*
X96276342Y-61952285D02*
X96371580Y-61999904D01*
X96371580Y-61999904D02*
X96419200Y-62047523D01*
X96419200Y-62047523D02*
X96466819Y-62142761D01*
X96466819Y-62142761D02*
X96466819Y-62428475D01*
X96466819Y-62428475D02*
X96419200Y-62523713D01*
X96419200Y-62523713D02*
X96371580Y-62571332D01*
X90116819Y-94494166D02*
X89640628Y-94827499D01*
X90116819Y-95065594D02*
X89116819Y-95065594D01*
X89116819Y-95065594D02*
X89116819Y-94684642D01*
X89116819Y-94684642D02*
X89164438Y-94589404D01*
X89164438Y-94589404D02*
X89212057Y-94541785D01*
X89212057Y-94541785D02*
X89307295Y-94494166D01*
X89307295Y-94494166D02*
X89450152Y-94494166D01*
X89450152Y-94494166D02*
X89545390Y-94541785D01*
X89545390Y-94541785D02*
X89593009Y-94589404D01*
X89593009Y-94589404D02*
X89640628Y-94684642D01*
X89640628Y-94684642D02*
X89640628Y-95065594D01*
X90116819Y-93541785D02*
X90116819Y-94113213D01*
X90116819Y-93827499D02*
X89116819Y-93827499D01*
X89116819Y-93827499D02*
X89259676Y-93922737D01*
X89259676Y-93922737D02*
X89354914Y-94017975D01*
X89354914Y-94017975D02*
X89402533Y-94113213D01*
X68908819Y-70380785D02*
X67908819Y-70380785D01*
X67908819Y-70380785D02*
X67908819Y-70142690D01*
X67908819Y-70142690D02*
X67956438Y-69999833D01*
X67956438Y-69999833D02*
X68051676Y-69904595D01*
X68051676Y-69904595D02*
X68146914Y-69856976D01*
X68146914Y-69856976D02*
X68337390Y-69809357D01*
X68337390Y-69809357D02*
X68480247Y-69809357D01*
X68480247Y-69809357D02*
X68670723Y-69856976D01*
X68670723Y-69856976D02*
X68765961Y-69904595D01*
X68765961Y-69904595D02*
X68861200Y-69999833D01*
X68861200Y-69999833D02*
X68908819Y-70142690D01*
X68908819Y-70142690D02*
X68908819Y-70380785D01*
X68908819Y-68856976D02*
X68908819Y-69428404D01*
X68908819Y-69142690D02*
X67908819Y-69142690D01*
X67908819Y-69142690D02*
X68051676Y-69237928D01*
X68051676Y-69237928D02*
X68146914Y-69333166D01*
X68146914Y-69333166D02*
X68194533Y-69428404D01*
X67908819Y-67999833D02*
X67908819Y-68190309D01*
X67908819Y-68190309D02*
X67956438Y-68285547D01*
X67956438Y-68285547D02*
X68004057Y-68333166D01*
X68004057Y-68333166D02*
X68146914Y-68428404D01*
X68146914Y-68428404D02*
X68337390Y-68476023D01*
X68337390Y-68476023D02*
X68718342Y-68476023D01*
X68718342Y-68476023D02*
X68813580Y-68428404D01*
X68813580Y-68428404D02*
X68861200Y-68380785D01*
X68861200Y-68380785D02*
X68908819Y-68285547D01*
X68908819Y-68285547D02*
X68908819Y-68095071D01*
X68908819Y-68095071D02*
X68861200Y-67999833D01*
X68861200Y-67999833D02*
X68813580Y-67952214D01*
X68813580Y-67952214D02*
X68718342Y-67904595D01*
X68718342Y-67904595D02*
X68480247Y-67904595D01*
X68480247Y-67904595D02*
X68385009Y-67952214D01*
X68385009Y-67952214D02*
X68337390Y-67999833D01*
X68337390Y-67999833D02*
X68289771Y-68095071D01*
X68289771Y-68095071D02*
X68289771Y-68285547D01*
X68289771Y-68285547D02*
X68337390Y-68380785D01*
X68337390Y-68380785D02*
X68385009Y-68428404D01*
X68385009Y-68428404D02*
X68480247Y-68476023D01*
X121612819Y-92146285D02*
X120612819Y-92146285D01*
X120612819Y-92146285D02*
X120612819Y-91908190D01*
X120612819Y-91908190D02*
X120660438Y-91765333D01*
X120660438Y-91765333D02*
X120755676Y-91670095D01*
X120755676Y-91670095D02*
X120850914Y-91622476D01*
X120850914Y-91622476D02*
X121041390Y-91574857D01*
X121041390Y-91574857D02*
X121184247Y-91574857D01*
X121184247Y-91574857D02*
X121374723Y-91622476D01*
X121374723Y-91622476D02*
X121469961Y-91670095D01*
X121469961Y-91670095D02*
X121565200Y-91765333D01*
X121565200Y-91765333D02*
X121612819Y-91908190D01*
X121612819Y-91908190D02*
X121612819Y-92146285D01*
X121612819Y-90622476D02*
X121612819Y-91193904D01*
X121612819Y-90908190D02*
X120612819Y-90908190D01*
X120612819Y-90908190D02*
X120755676Y-91003428D01*
X120755676Y-91003428D02*
X120850914Y-91098666D01*
X120850914Y-91098666D02*
X120898533Y-91193904D01*
X120612819Y-90289142D02*
X120612819Y-89622476D01*
X120612819Y-89622476D02*
X121612819Y-90051047D01*
X121612819Y-70116785D02*
X120612819Y-70116785D01*
X120612819Y-70116785D02*
X120612819Y-69878690D01*
X120612819Y-69878690D02*
X120660438Y-69735833D01*
X120660438Y-69735833D02*
X120755676Y-69640595D01*
X120755676Y-69640595D02*
X120850914Y-69592976D01*
X120850914Y-69592976D02*
X121041390Y-69545357D01*
X121041390Y-69545357D02*
X121184247Y-69545357D01*
X121184247Y-69545357D02*
X121374723Y-69592976D01*
X121374723Y-69592976D02*
X121469961Y-69640595D01*
X121469961Y-69640595D02*
X121565200Y-69735833D01*
X121565200Y-69735833D02*
X121612819Y-69878690D01*
X121612819Y-69878690D02*
X121612819Y-70116785D01*
X120708057Y-69164404D02*
X120660438Y-69116785D01*
X120660438Y-69116785D02*
X120612819Y-69021547D01*
X120612819Y-69021547D02*
X120612819Y-68783452D01*
X120612819Y-68783452D02*
X120660438Y-68688214D01*
X120660438Y-68688214D02*
X120708057Y-68640595D01*
X120708057Y-68640595D02*
X120803295Y-68592976D01*
X120803295Y-68592976D02*
X120898533Y-68592976D01*
X120898533Y-68592976D02*
X121041390Y-68640595D01*
X121041390Y-68640595D02*
X121612819Y-69212023D01*
X121612819Y-69212023D02*
X121612819Y-68592976D01*
X120612819Y-67688214D02*
X120612819Y-68164404D01*
X120612819Y-68164404D02*
X121089009Y-68212023D01*
X121089009Y-68212023D02*
X121041390Y-68164404D01*
X121041390Y-68164404D02*
X120993771Y-68069166D01*
X120993771Y-68069166D02*
X120993771Y-67831071D01*
X120993771Y-67831071D02*
X121041390Y-67735833D01*
X121041390Y-67735833D02*
X121089009Y-67688214D01*
X121089009Y-67688214D02*
X121184247Y-67640595D01*
X121184247Y-67640595D02*
X121422342Y-67640595D01*
X121422342Y-67640595D02*
X121517580Y-67688214D01*
X121517580Y-67688214D02*
X121565200Y-67735833D01*
X121565200Y-67735833D02*
X121612819Y-67831071D01*
X121612819Y-67831071D02*
X121612819Y-68069166D01*
X121612819Y-68069166D02*
X121565200Y-68164404D01*
X121565200Y-68164404D02*
X121517580Y-68212023D01*
X68780819Y-73390357D02*
X68304628Y-73723690D01*
X68780819Y-73961785D02*
X67780819Y-73961785D01*
X67780819Y-73961785D02*
X67780819Y-73580833D01*
X67780819Y-73580833D02*
X67828438Y-73485595D01*
X67828438Y-73485595D02*
X67876057Y-73437976D01*
X67876057Y-73437976D02*
X67971295Y-73390357D01*
X67971295Y-73390357D02*
X68114152Y-73390357D01*
X68114152Y-73390357D02*
X68209390Y-73437976D01*
X68209390Y-73437976D02*
X68257009Y-73485595D01*
X68257009Y-73485595D02*
X68304628Y-73580833D01*
X68304628Y-73580833D02*
X68304628Y-73961785D01*
X68780819Y-72437976D02*
X68780819Y-73009404D01*
X68780819Y-72723690D02*
X67780819Y-72723690D01*
X67780819Y-72723690D02*
X67923676Y-72818928D01*
X67923676Y-72818928D02*
X68018914Y-72914166D01*
X68018914Y-72914166D02*
X68066533Y-73009404D01*
X67780819Y-71580833D02*
X67780819Y-71771309D01*
X67780819Y-71771309D02*
X67828438Y-71866547D01*
X67828438Y-71866547D02*
X67876057Y-71914166D01*
X67876057Y-71914166D02*
X68018914Y-72009404D01*
X68018914Y-72009404D02*
X68209390Y-72057023D01*
X68209390Y-72057023D02*
X68590342Y-72057023D01*
X68590342Y-72057023D02*
X68685580Y-72009404D01*
X68685580Y-72009404D02*
X68733200Y-71961785D01*
X68733200Y-71961785D02*
X68780819Y-71866547D01*
X68780819Y-71866547D02*
X68780819Y-71676071D01*
X68780819Y-71676071D02*
X68733200Y-71580833D01*
X68733200Y-71580833D02*
X68685580Y-71533214D01*
X68685580Y-71533214D02*
X68590342Y-71485595D01*
X68590342Y-71485595D02*
X68352247Y-71485595D01*
X68352247Y-71485595D02*
X68257009Y-71533214D01*
X68257009Y-71533214D02*
X68209390Y-71580833D01*
X68209390Y-71580833D02*
X68161771Y-71676071D01*
X68161771Y-71676071D02*
X68161771Y-71866547D01*
X68161771Y-71866547D02*
X68209390Y-71961785D01*
X68209390Y-71961785D02*
X68257009Y-72009404D01*
X68257009Y-72009404D02*
X68352247Y-72057023D01*
X96371580Y-75096666D02*
X96419200Y-75144285D01*
X96419200Y-75144285D02*
X96466819Y-75287142D01*
X96466819Y-75287142D02*
X96466819Y-75382380D01*
X96466819Y-75382380D02*
X96419200Y-75525237D01*
X96419200Y-75525237D02*
X96323961Y-75620475D01*
X96323961Y-75620475D02*
X96228723Y-75668094D01*
X96228723Y-75668094D02*
X96038247Y-75715713D01*
X96038247Y-75715713D02*
X95895390Y-75715713D01*
X95895390Y-75715713D02*
X95704914Y-75668094D01*
X95704914Y-75668094D02*
X95609676Y-75620475D01*
X95609676Y-75620475D02*
X95514438Y-75525237D01*
X95514438Y-75525237D02*
X95466819Y-75382380D01*
X95466819Y-75382380D02*
X95466819Y-75287142D01*
X95466819Y-75287142D02*
X95514438Y-75144285D01*
X95514438Y-75144285D02*
X95562057Y-75096666D01*
X95800152Y-74239523D02*
X96466819Y-74239523D01*
X95419200Y-74477618D02*
X96133485Y-74715713D01*
X96133485Y-74715713D02*
X96133485Y-74096666D01*
X123704819Y-80507904D02*
X124514342Y-80507904D01*
X124514342Y-80507904D02*
X124609580Y-80460285D01*
X124609580Y-80460285D02*
X124657200Y-80412666D01*
X124657200Y-80412666D02*
X124704819Y-80317428D01*
X124704819Y-80317428D02*
X124704819Y-80126952D01*
X124704819Y-80126952D02*
X124657200Y-80031714D01*
X124657200Y-80031714D02*
X124609580Y-79984095D01*
X124609580Y-79984095D02*
X124514342Y-79936476D01*
X124514342Y-79936476D02*
X123704819Y-79936476D01*
X123704819Y-79555523D02*
X123704819Y-78936476D01*
X123704819Y-78936476D02*
X124085771Y-79269809D01*
X124085771Y-79269809D02*
X124085771Y-79126952D01*
X124085771Y-79126952D02*
X124133390Y-79031714D01*
X124133390Y-79031714D02*
X124181009Y-78984095D01*
X124181009Y-78984095D02*
X124276247Y-78936476D01*
X124276247Y-78936476D02*
X124514342Y-78936476D01*
X124514342Y-78936476D02*
X124609580Y-78984095D01*
X124609580Y-78984095D02*
X124657200Y-79031714D01*
X124657200Y-79031714D02*
X124704819Y-79126952D01*
X124704819Y-79126952D02*
X124704819Y-79412666D01*
X124704819Y-79412666D02*
X124657200Y-79507904D01*
X124657200Y-79507904D02*
X124609580Y-79555523D01*
X124168819Y-65601333D02*
X124883104Y-65601333D01*
X124883104Y-65601333D02*
X125025961Y-65648952D01*
X125025961Y-65648952D02*
X125121200Y-65744190D01*
X125121200Y-65744190D02*
X125168819Y-65887047D01*
X125168819Y-65887047D02*
X125168819Y-65982285D01*
X124502152Y-64696571D02*
X125168819Y-64696571D01*
X124121200Y-64934666D02*
X124835485Y-65172761D01*
X124835485Y-65172761D02*
X124835485Y-64553714D01*
X90116819Y-69904594D02*
X89116819Y-69904594D01*
X89116819Y-69904594D02*
X89116819Y-69666499D01*
X89116819Y-69666499D02*
X89164438Y-69523642D01*
X89164438Y-69523642D02*
X89259676Y-69428404D01*
X89259676Y-69428404D02*
X89354914Y-69380785D01*
X89354914Y-69380785D02*
X89545390Y-69333166D01*
X89545390Y-69333166D02*
X89688247Y-69333166D01*
X89688247Y-69333166D02*
X89878723Y-69380785D01*
X89878723Y-69380785D02*
X89973961Y-69428404D01*
X89973961Y-69428404D02*
X90069200Y-69523642D01*
X90069200Y-69523642D02*
X90116819Y-69666499D01*
X90116819Y-69666499D02*
X90116819Y-69904594D01*
X90116819Y-68856975D02*
X90116819Y-68666499D01*
X90116819Y-68666499D02*
X90069200Y-68571261D01*
X90069200Y-68571261D02*
X90021580Y-68523642D01*
X90021580Y-68523642D02*
X89878723Y-68428404D01*
X89878723Y-68428404D02*
X89688247Y-68380785D01*
X89688247Y-68380785D02*
X89307295Y-68380785D01*
X89307295Y-68380785D02*
X89212057Y-68428404D01*
X89212057Y-68428404D02*
X89164438Y-68476023D01*
X89164438Y-68476023D02*
X89116819Y-68571261D01*
X89116819Y-68571261D02*
X89116819Y-68761737D01*
X89116819Y-68761737D02*
X89164438Y-68856975D01*
X89164438Y-68856975D02*
X89212057Y-68904594D01*
X89212057Y-68904594D02*
X89307295Y-68952213D01*
X89307295Y-68952213D02*
X89545390Y-68952213D01*
X89545390Y-68952213D02*
X89640628Y-68904594D01*
X89640628Y-68904594D02*
X89688247Y-68856975D01*
X89688247Y-68856975D02*
X89735866Y-68761737D01*
X89735866Y-68761737D02*
X89735866Y-68571261D01*
X89735866Y-68571261D02*
X89688247Y-68476023D01*
X89688247Y-68476023D02*
X89640628Y-68428404D01*
X89640628Y-68428404D02*
X89545390Y-68380785D01*
X127682666Y-65704819D02*
X127682666Y-66419104D01*
X127682666Y-66419104D02*
X127635047Y-66561961D01*
X127635047Y-66561961D02*
X127539809Y-66657200D01*
X127539809Y-66657200D02*
X127396952Y-66704819D01*
X127396952Y-66704819D02*
X127301714Y-66704819D01*
X128635047Y-65704819D02*
X128158857Y-65704819D01*
X128158857Y-65704819D02*
X128111238Y-66181009D01*
X128111238Y-66181009D02*
X128158857Y-66133390D01*
X128158857Y-66133390D02*
X128254095Y-66085771D01*
X128254095Y-66085771D02*
X128492190Y-66085771D01*
X128492190Y-66085771D02*
X128587428Y-66133390D01*
X128587428Y-66133390D02*
X128635047Y-66181009D01*
X128635047Y-66181009D02*
X128682666Y-66276247D01*
X128682666Y-66276247D02*
X128682666Y-66514342D01*
X128682666Y-66514342D02*
X128635047Y-66609580D01*
X128635047Y-66609580D02*
X128587428Y-66657200D01*
X128587428Y-66657200D02*
X128492190Y-66704819D01*
X128492190Y-66704819D02*
X128254095Y-66704819D01*
X128254095Y-66704819D02*
X128158857Y-66657200D01*
X128158857Y-66657200D02*
X128111238Y-66609580D01*
X121612819Y-73183357D02*
X121136628Y-73516690D01*
X121612819Y-73754785D02*
X120612819Y-73754785D01*
X120612819Y-73754785D02*
X120612819Y-73373833D01*
X120612819Y-73373833D02*
X120660438Y-73278595D01*
X120660438Y-73278595D02*
X120708057Y-73230976D01*
X120708057Y-73230976D02*
X120803295Y-73183357D01*
X120803295Y-73183357D02*
X120946152Y-73183357D01*
X120946152Y-73183357D02*
X121041390Y-73230976D01*
X121041390Y-73230976D02*
X121089009Y-73278595D01*
X121089009Y-73278595D02*
X121136628Y-73373833D01*
X121136628Y-73373833D02*
X121136628Y-73754785D01*
X120708057Y-72802404D02*
X120660438Y-72754785D01*
X120660438Y-72754785D02*
X120612819Y-72659547D01*
X120612819Y-72659547D02*
X120612819Y-72421452D01*
X120612819Y-72421452D02*
X120660438Y-72326214D01*
X120660438Y-72326214D02*
X120708057Y-72278595D01*
X120708057Y-72278595D02*
X120803295Y-72230976D01*
X120803295Y-72230976D02*
X120898533Y-72230976D01*
X120898533Y-72230976D02*
X121041390Y-72278595D01*
X121041390Y-72278595D02*
X121612819Y-72850023D01*
X121612819Y-72850023D02*
X121612819Y-72230976D01*
X120612819Y-71326214D02*
X120612819Y-71802404D01*
X120612819Y-71802404D02*
X121089009Y-71850023D01*
X121089009Y-71850023D02*
X121041390Y-71802404D01*
X121041390Y-71802404D02*
X120993771Y-71707166D01*
X120993771Y-71707166D02*
X120993771Y-71469071D01*
X120993771Y-71469071D02*
X121041390Y-71373833D01*
X121041390Y-71373833D02*
X121089009Y-71326214D01*
X121089009Y-71326214D02*
X121184247Y-71278595D01*
X121184247Y-71278595D02*
X121422342Y-71278595D01*
X121422342Y-71278595D02*
X121517580Y-71326214D01*
X121517580Y-71326214D02*
X121565200Y-71373833D01*
X121565200Y-71373833D02*
X121612819Y-71469071D01*
X121612819Y-71469071D02*
X121612819Y-71707166D01*
X121612819Y-71707166D02*
X121565200Y-71802404D01*
X121565200Y-71802404D02*
X121517580Y-71850023D01*
X100276819Y-73032857D02*
X99800628Y-73366190D01*
X100276819Y-73604285D02*
X99276819Y-73604285D01*
X99276819Y-73604285D02*
X99276819Y-73223333D01*
X99276819Y-73223333D02*
X99324438Y-73128095D01*
X99324438Y-73128095D02*
X99372057Y-73080476D01*
X99372057Y-73080476D02*
X99467295Y-73032857D01*
X99467295Y-73032857D02*
X99610152Y-73032857D01*
X99610152Y-73032857D02*
X99705390Y-73080476D01*
X99705390Y-73080476D02*
X99753009Y-73128095D01*
X99753009Y-73128095D02*
X99800628Y-73223333D01*
X99800628Y-73223333D02*
X99800628Y-73604285D01*
X99276819Y-72699523D02*
X99276819Y-72080476D01*
X99276819Y-72080476D02*
X99657771Y-72413809D01*
X99657771Y-72413809D02*
X99657771Y-72270952D01*
X99657771Y-72270952D02*
X99705390Y-72175714D01*
X99705390Y-72175714D02*
X99753009Y-72128095D01*
X99753009Y-72128095D02*
X99848247Y-72080476D01*
X99848247Y-72080476D02*
X100086342Y-72080476D01*
X100086342Y-72080476D02*
X100181580Y-72128095D01*
X100181580Y-72128095D02*
X100229200Y-72175714D01*
X100229200Y-72175714D02*
X100276819Y-72270952D01*
X100276819Y-72270952D02*
X100276819Y-72556666D01*
X100276819Y-72556666D02*
X100229200Y-72651904D01*
X100229200Y-72651904D02*
X100181580Y-72699523D01*
X99372057Y-71699523D02*
X99324438Y-71651904D01*
X99324438Y-71651904D02*
X99276819Y-71556666D01*
X99276819Y-71556666D02*
X99276819Y-71318571D01*
X99276819Y-71318571D02*
X99324438Y-71223333D01*
X99324438Y-71223333D02*
X99372057Y-71175714D01*
X99372057Y-71175714D02*
X99467295Y-71128095D01*
X99467295Y-71128095D02*
X99562533Y-71128095D01*
X99562533Y-71128095D02*
X99705390Y-71175714D01*
X99705390Y-71175714D02*
X100276819Y-71747142D01*
X100276819Y-71747142D02*
X100276819Y-71128095D01*
X68780819Y-94400666D02*
X68304628Y-94733999D01*
X68780819Y-94972094D02*
X67780819Y-94972094D01*
X67780819Y-94972094D02*
X67780819Y-94591142D01*
X67780819Y-94591142D02*
X67828438Y-94495904D01*
X67828438Y-94495904D02*
X67876057Y-94448285D01*
X67876057Y-94448285D02*
X67971295Y-94400666D01*
X67971295Y-94400666D02*
X68114152Y-94400666D01*
X68114152Y-94400666D02*
X68209390Y-94448285D01*
X68209390Y-94448285D02*
X68257009Y-94495904D01*
X68257009Y-94495904D02*
X68304628Y-94591142D01*
X68304628Y-94591142D02*
X68304628Y-94972094D01*
X68209390Y-93829237D02*
X68161771Y-93924475D01*
X68161771Y-93924475D02*
X68114152Y-93972094D01*
X68114152Y-93972094D02*
X68018914Y-94019713D01*
X68018914Y-94019713D02*
X67971295Y-94019713D01*
X67971295Y-94019713D02*
X67876057Y-93972094D01*
X67876057Y-93972094D02*
X67828438Y-93924475D01*
X67828438Y-93924475D02*
X67780819Y-93829237D01*
X67780819Y-93829237D02*
X67780819Y-93638761D01*
X67780819Y-93638761D02*
X67828438Y-93543523D01*
X67828438Y-93543523D02*
X67876057Y-93495904D01*
X67876057Y-93495904D02*
X67971295Y-93448285D01*
X67971295Y-93448285D02*
X68018914Y-93448285D01*
X68018914Y-93448285D02*
X68114152Y-93495904D01*
X68114152Y-93495904D02*
X68161771Y-93543523D01*
X68161771Y-93543523D02*
X68209390Y-93638761D01*
X68209390Y-93638761D02*
X68209390Y-93829237D01*
X68209390Y-93829237D02*
X68257009Y-93924475D01*
X68257009Y-93924475D02*
X68304628Y-93972094D01*
X68304628Y-93972094D02*
X68399866Y-94019713D01*
X68399866Y-94019713D02*
X68590342Y-94019713D01*
X68590342Y-94019713D02*
X68685580Y-93972094D01*
X68685580Y-93972094D02*
X68733200Y-93924475D01*
X68733200Y-93924475D02*
X68780819Y-93829237D01*
X68780819Y-93829237D02*
X68780819Y-93638761D01*
X68780819Y-93638761D02*
X68733200Y-93543523D01*
X68733200Y-93543523D02*
X68685580Y-93495904D01*
X68685580Y-93495904D02*
X68590342Y-93448285D01*
X68590342Y-93448285D02*
X68399866Y-93448285D01*
X68399866Y-93448285D02*
X68304628Y-93495904D01*
X68304628Y-93495904D02*
X68257009Y-93543523D01*
X68257009Y-93543523D02*
X68209390Y-93638761D01*
X92208819Y-87445333D02*
X92923104Y-87445333D01*
X92923104Y-87445333D02*
X93065961Y-87492952D01*
X93065961Y-87492952D02*
X93161200Y-87588190D01*
X93161200Y-87588190D02*
X93208819Y-87731047D01*
X93208819Y-87731047D02*
X93208819Y-87826285D01*
X93208819Y-86445333D02*
X93208819Y-87016761D01*
X93208819Y-86731047D02*
X92208819Y-86731047D01*
X92208819Y-86731047D02*
X92351676Y-86826285D01*
X92351676Y-86826285D02*
X92446914Y-86921523D01*
X92446914Y-86921523D02*
X92494533Y-87016761D01*
X100276819Y-70116785D02*
X99276819Y-70116785D01*
X99276819Y-70116785D02*
X99276819Y-69878690D01*
X99276819Y-69878690D02*
X99324438Y-69735833D01*
X99324438Y-69735833D02*
X99419676Y-69640595D01*
X99419676Y-69640595D02*
X99514914Y-69592976D01*
X99514914Y-69592976D02*
X99705390Y-69545357D01*
X99705390Y-69545357D02*
X99848247Y-69545357D01*
X99848247Y-69545357D02*
X100038723Y-69592976D01*
X100038723Y-69592976D02*
X100133961Y-69640595D01*
X100133961Y-69640595D02*
X100229200Y-69735833D01*
X100229200Y-69735833D02*
X100276819Y-69878690D01*
X100276819Y-69878690D02*
X100276819Y-70116785D01*
X99276819Y-69212023D02*
X99276819Y-68592976D01*
X99276819Y-68592976D02*
X99657771Y-68926309D01*
X99657771Y-68926309D02*
X99657771Y-68783452D01*
X99657771Y-68783452D02*
X99705390Y-68688214D01*
X99705390Y-68688214D02*
X99753009Y-68640595D01*
X99753009Y-68640595D02*
X99848247Y-68592976D01*
X99848247Y-68592976D02*
X100086342Y-68592976D01*
X100086342Y-68592976D02*
X100181580Y-68640595D01*
X100181580Y-68640595D02*
X100229200Y-68688214D01*
X100229200Y-68688214D02*
X100276819Y-68783452D01*
X100276819Y-68783452D02*
X100276819Y-69069166D01*
X100276819Y-69069166D02*
X100229200Y-69164404D01*
X100229200Y-69164404D02*
X100181580Y-69212023D01*
X99372057Y-68212023D02*
X99324438Y-68164404D01*
X99324438Y-68164404D02*
X99276819Y-68069166D01*
X99276819Y-68069166D02*
X99276819Y-67831071D01*
X99276819Y-67831071D02*
X99324438Y-67735833D01*
X99324438Y-67735833D02*
X99372057Y-67688214D01*
X99372057Y-67688214D02*
X99467295Y-67640595D01*
X99467295Y-67640595D02*
X99562533Y-67640595D01*
X99562533Y-67640595D02*
X99705390Y-67688214D01*
X99705390Y-67688214D02*
X100276819Y-68259642D01*
X100276819Y-68259642D02*
X100276819Y-67640595D01*
X100276819Y-95027357D02*
X99800628Y-95360690D01*
X100276819Y-95598785D02*
X99276819Y-95598785D01*
X99276819Y-95598785D02*
X99276819Y-95217833D01*
X99276819Y-95217833D02*
X99324438Y-95122595D01*
X99324438Y-95122595D02*
X99372057Y-95074976D01*
X99372057Y-95074976D02*
X99467295Y-95027357D01*
X99467295Y-95027357D02*
X99610152Y-95027357D01*
X99610152Y-95027357D02*
X99705390Y-95074976D01*
X99705390Y-95074976D02*
X99753009Y-95122595D01*
X99753009Y-95122595D02*
X99800628Y-95217833D01*
X99800628Y-95217833D02*
X99800628Y-95598785D01*
X99372057Y-94646404D02*
X99324438Y-94598785D01*
X99324438Y-94598785D02*
X99276819Y-94503547D01*
X99276819Y-94503547D02*
X99276819Y-94265452D01*
X99276819Y-94265452D02*
X99324438Y-94170214D01*
X99324438Y-94170214D02*
X99372057Y-94122595D01*
X99372057Y-94122595D02*
X99467295Y-94074976D01*
X99467295Y-94074976D02*
X99562533Y-94074976D01*
X99562533Y-94074976D02*
X99705390Y-94122595D01*
X99705390Y-94122595D02*
X100276819Y-94694023D01*
X100276819Y-94694023D02*
X100276819Y-94074976D01*
X99610152Y-93217833D02*
X100276819Y-93217833D01*
X99229200Y-93455928D02*
X99943485Y-93694023D01*
X99943485Y-93694023D02*
X99943485Y-93074976D01*
D11*
%TO.C,C5*%
X123898000Y-73350000D02*
X123913000Y-73350000D01*
X123898000Y-73350000D02*
X123898000Y-68810000D01*
X126023000Y-73350000D02*
X126038000Y-73350000D01*
X126038000Y-73350000D02*
X126038000Y-68810000D01*
X123898000Y-68810000D02*
X123913000Y-68810000D01*
X126023000Y-68810000D02*
X126038000Y-68810000D01*
%TO.C,C1*%
X65586000Y-77954000D02*
X65571000Y-77954000D01*
X65586000Y-77954000D02*
X65586000Y-82494000D01*
X63461000Y-77954000D02*
X63446000Y-77954000D01*
X63446000Y-77954000D02*
X63446000Y-82494000D01*
X65586000Y-82494000D02*
X65571000Y-82494000D01*
X63461000Y-82494000D02*
X63446000Y-82494000D01*
%TO.C,D23*%
X103180000Y-92538500D02*
X105100000Y-92538500D01*
X105100000Y-92538500D02*
X105100000Y-89853500D01*
X103180000Y-89853500D02*
X103180000Y-92538500D01*
%TO.C,R9*%
X88619000Y-72520436D02*
X88619000Y-72974564D01*
X87149000Y-72520436D02*
X87149000Y-72974564D01*
%TO.C,D5*%
X76764000Y-89746500D02*
X76764000Y-92431500D01*
X76764000Y-92431500D02*
X78684000Y-92431500D01*
X78684000Y-92431500D02*
X78684000Y-89746500D01*
%TO.C,R3*%
X83539000Y-94100436D02*
X83539000Y-94554564D01*
X82069000Y-94100436D02*
X82069000Y-94554564D01*
%TO.C,R10*%
X86079000Y-72520436D02*
X86079000Y-72974564D01*
X84609000Y-72520436D02*
X84609000Y-72974564D01*
%TO.C,R22*%
X107415000Y-94157436D02*
X107415000Y-94611564D01*
X105945000Y-94157436D02*
X105945000Y-94611564D01*
%TO.C,R4*%
X80999000Y-94100436D02*
X80999000Y-94554564D01*
X79529000Y-94100436D02*
X79529000Y-94554564D01*
%TO.C,D18*%
X115880000Y-92538500D02*
X117800000Y-92538500D01*
X117800000Y-92538500D02*
X117800000Y-89853500D01*
X115880000Y-89853500D02*
X115880000Y-92538500D01*
%TO.C,C2*%
X65586000Y-56110000D02*
X65571000Y-56110000D01*
X65586000Y-56110000D02*
X65586000Y-60650000D01*
X63461000Y-56110000D02*
X63446000Y-56110000D01*
X63446000Y-56110000D02*
X63446000Y-60650000D01*
X65586000Y-60650000D02*
X65571000Y-60650000D01*
X63461000Y-60650000D02*
X63446000Y-60650000D01*
%TO.C,R27*%
X115035000Y-72313436D02*
X115035000Y-72767564D01*
X113565000Y-72313436D02*
X113565000Y-72767564D01*
%TO.C,D29*%
X108260000Y-67902500D02*
X108260000Y-70587500D01*
X110180000Y-70587500D02*
X110180000Y-67902500D01*
X108260000Y-70587500D02*
X110180000Y-70587500D01*
%TO.C,D22*%
X105720000Y-92538500D02*
X107640000Y-92538500D01*
X107640000Y-92538500D02*
X107640000Y-89853500D01*
X105720000Y-89853500D02*
X105720000Y-92538500D01*
%TO.C,R26*%
X117575000Y-72313436D02*
X117575000Y-72767564D01*
X116105000Y-72313436D02*
X116105000Y-72767564D01*
%TO.C,R19*%
X115035000Y-94157436D02*
X115035000Y-94611564D01*
X113565000Y-94157436D02*
X113565000Y-94611564D01*
%TO.C,D6*%
X74224000Y-89746500D02*
X74224000Y-92431500D01*
X74224000Y-92431500D02*
X76144000Y-92431500D01*
X76144000Y-92431500D02*
X76144000Y-89746500D01*
%TO.C,D7*%
X71684000Y-89746500D02*
X71684000Y-92431500D01*
X71684000Y-92431500D02*
X73604000Y-92431500D01*
X73604000Y-92431500D02*
X73604000Y-89746500D01*
%TO.C,J3*%
X97730000Y-85782000D02*
X97730000Y-88442000D01*
X120650000Y-85782000D02*
X97730000Y-85782000D01*
X120650000Y-85782000D02*
X120650000Y-88442000D01*
X120650000Y-88442000D02*
X97730000Y-88442000D01*
X121920000Y-85782000D02*
X123250000Y-85782000D01*
X123250000Y-85782000D02*
X123250000Y-87112000D01*
%TO.C,D1*%
X86924000Y-89746500D02*
X86924000Y-92431500D01*
X86924000Y-92431500D02*
X88844000Y-92431500D01*
X88844000Y-92431500D02*
X88844000Y-89746500D01*
%TO.C,R2*%
X86079000Y-94100436D02*
X86079000Y-94554564D01*
X84609000Y-94100436D02*
X84609000Y-94554564D01*
%TO.C,D28*%
X110800000Y-67902500D02*
X110800000Y-70587500D01*
X112720000Y-70587500D02*
X112720000Y-67902500D01*
X110800000Y-70587500D02*
X112720000Y-70587500D01*
%TO.C,U1*%
X66174000Y-74870000D02*
X66174000Y-85150000D01*
X66174000Y-85150000D02*
X91814000Y-85150000D01*
X66234000Y-77360000D02*
X66234000Y-82660000D01*
X66234000Y-82660000D02*
X91754000Y-82660000D01*
X91754000Y-77360000D02*
X66234000Y-77360000D01*
X91754000Y-79010000D02*
X91754000Y-77360000D01*
X91754000Y-82660000D02*
X91754000Y-81010000D01*
X91814000Y-74870000D02*
X66174000Y-74870000D01*
X91814000Y-85150000D02*
X91814000Y-74870000D01*
X91754000Y-81010000D02*
G75*
G02*
X91754000Y-79010000I0J1000000D01*
G01*
%TO.C,R5*%
X78459000Y-94100436D02*
X78459000Y-94554564D01*
X76989000Y-94100436D02*
X76989000Y-94554564D01*
%TO.C,R20*%
X112495000Y-94157436D02*
X112495000Y-94611564D01*
X111025000Y-94157436D02*
X111025000Y-94611564D01*
%TO.C,U2*%
X66174000Y-53026000D02*
X66174000Y-63306000D01*
X66174000Y-63306000D02*
X91814000Y-63306000D01*
X66234000Y-55516000D02*
X66234000Y-60816000D01*
X66234000Y-60816000D02*
X91754000Y-60816000D01*
X91754000Y-55516000D02*
X66234000Y-55516000D01*
X91754000Y-57166000D02*
X91754000Y-55516000D01*
X91754000Y-60816000D02*
X91754000Y-59166000D01*
X91814000Y-53026000D02*
X66174000Y-53026000D01*
X91814000Y-63306000D02*
X91814000Y-53026000D01*
X91754000Y-59166000D02*
G75*
G02*
X91754000Y-57166000I0J1000000D01*
G01*
%TO.C,R30*%
X107415000Y-72313436D02*
X107415000Y-72767564D01*
X105945000Y-72313436D02*
X105945000Y-72767564D01*
%TO.C,U4*%
X97670000Y-53026000D02*
X97670000Y-63306000D01*
X97670000Y-63306000D02*
X123310000Y-63306000D01*
X97730000Y-55516000D02*
X97730000Y-60816000D01*
X97730000Y-60816000D02*
X123250000Y-60816000D01*
X123250000Y-55516000D02*
X97730000Y-55516000D01*
X123250000Y-57166000D02*
X123250000Y-55516000D01*
X123250000Y-60816000D02*
X123250000Y-59166000D01*
X123310000Y-53026000D02*
X97670000Y-53026000D01*
X123310000Y-63306000D02*
X123310000Y-53026000D01*
X123250000Y-59166000D02*
G75*
G02*
X123250000Y-57166000I0J1000000D01*
G01*
%TO.C,D8*%
X69144000Y-89746500D02*
X69144000Y-92431500D01*
X69144000Y-92431500D02*
X71064000Y-92431500D01*
X71064000Y-92431500D02*
X71064000Y-89746500D01*
%TO.C,R17*%
X120115000Y-94157436D02*
X120115000Y-94611564D01*
X118645000Y-94157436D02*
X118645000Y-94611564D01*
%TO.C,D13*%
X76764000Y-68166500D02*
X76764000Y-70851500D01*
X76764000Y-70851500D02*
X78684000Y-70851500D01*
X78684000Y-70851500D02*
X78684000Y-68166500D01*
%TO.C,D30*%
X105720000Y-67902500D02*
X105720000Y-70587500D01*
X107640000Y-70587500D02*
X107640000Y-67902500D01*
X105720000Y-70587500D02*
X107640000Y-70587500D01*
%TO.C,J2*%
X66234000Y-64202000D02*
X66234000Y-66862000D01*
X89154000Y-64202000D02*
X66234000Y-64202000D01*
X89154000Y-64202000D02*
X89154000Y-66862000D01*
X89154000Y-66862000D02*
X66234000Y-66862000D01*
X90424000Y-64202000D02*
X91754000Y-64202000D01*
X91754000Y-64202000D02*
X91754000Y-65532000D01*
%TO.C,D14*%
X74224000Y-68166500D02*
X74224000Y-70851500D01*
X74224000Y-70851500D02*
X76144000Y-70851500D01*
X76144000Y-70851500D02*
X76144000Y-68166500D01*
%TO.C,D24*%
X100640000Y-92538500D02*
X102560000Y-92538500D01*
X102560000Y-92538500D02*
X102560000Y-89853500D01*
X100640000Y-89853500D02*
X100640000Y-92538500D01*
%TO.C,R29*%
X109955000Y-72313436D02*
X109955000Y-72767564D01*
X108485000Y-72313436D02*
X108485000Y-72767564D01*
%TO.C,C3*%
X97082000Y-55846000D02*
X97067000Y-55846000D01*
X97082000Y-55846000D02*
X97082000Y-60386000D01*
X94957000Y-55846000D02*
X94942000Y-55846000D01*
X94942000Y-55846000D02*
X94942000Y-60386000D01*
X97082000Y-60386000D02*
X97067000Y-60386000D01*
X94957000Y-60386000D02*
X94942000Y-60386000D01*
%TO.C,R1*%
X88619000Y-94100436D02*
X88619000Y-94554564D01*
X87149000Y-94100436D02*
X87149000Y-94554564D01*
%TO.C,R13*%
X78459000Y-72520436D02*
X78459000Y-72974564D01*
X76989000Y-72520436D02*
X76989000Y-72974564D01*
%TO.C,D27*%
X113340000Y-67902500D02*
X113340000Y-70587500D01*
X115260000Y-70587500D02*
X115260000Y-67902500D01*
X113340000Y-70587500D02*
X115260000Y-70587500D01*
%TO.C,R15*%
X73379000Y-72520436D02*
X73379000Y-72974564D01*
X71909000Y-72520436D02*
X71909000Y-72974564D01*
%TO.C,R7*%
X73379000Y-94100436D02*
X73379000Y-94554564D01*
X71909000Y-94100436D02*
X71909000Y-94554564D01*
%TO.C,D16*%
X69144000Y-68166500D02*
X69144000Y-70851500D01*
X69144000Y-70851500D02*
X71064000Y-70851500D01*
X71064000Y-70851500D02*
X71064000Y-68166500D01*
%TO.C,D19*%
X113340000Y-92538500D02*
X115260000Y-92538500D01*
X115260000Y-92538500D02*
X115260000Y-89853500D01*
X113340000Y-89853500D02*
X113340000Y-92538500D01*
%TO.C,D2*%
X84384000Y-89746500D02*
X84384000Y-92431500D01*
X84384000Y-92431500D02*
X86304000Y-92431500D01*
X86304000Y-92431500D02*
X86304000Y-89746500D01*
%TO.C,R18*%
X117575000Y-94157436D02*
X117575000Y-94611564D01*
X116105000Y-94157436D02*
X116105000Y-94611564D01*
%TO.C,R12*%
X80999000Y-72520436D02*
X80999000Y-72974564D01*
X79529000Y-72520436D02*
X79529000Y-72974564D01*
%TO.C,R14*%
X75919000Y-72520436D02*
X75919000Y-72974564D01*
X74449000Y-72520436D02*
X74449000Y-72974564D01*
%TO.C,D17*%
X118420000Y-92538500D02*
X120340000Y-92538500D01*
X120340000Y-92538500D02*
X120340000Y-89853500D01*
X118420000Y-89853500D02*
X118420000Y-92538500D01*
%TO.C,D25*%
X118420000Y-70587500D02*
X120340000Y-70587500D01*
X120340000Y-70587500D02*
X120340000Y-67902500D01*
X118420000Y-67902500D02*
X118420000Y-70587500D01*
%TO.C,D21*%
X108260000Y-92538500D02*
X110180000Y-92538500D01*
X110180000Y-92538500D02*
X110180000Y-89853500D01*
X108260000Y-89853500D02*
X108260000Y-92538500D01*
%TO.C,R31*%
X104875000Y-72313436D02*
X104875000Y-72767564D01*
X103405000Y-72313436D02*
X103405000Y-72767564D01*
%TO.C,R28*%
X112495000Y-72313436D02*
X112495000Y-72767564D01*
X111025000Y-72313436D02*
X111025000Y-72767564D01*
%TO.C,D26*%
X115880000Y-67902500D02*
X115880000Y-70587500D01*
X117800000Y-70587500D02*
X117800000Y-67902500D01*
X115880000Y-70587500D02*
X117800000Y-70587500D01*
%TO.C,R16*%
X70839000Y-72520436D02*
X70839000Y-72974564D01*
X69369000Y-72520436D02*
X69369000Y-72974564D01*
%TO.C,R23*%
X104875000Y-94157436D02*
X104875000Y-94611564D01*
X103405000Y-94157436D02*
X103405000Y-94611564D01*
%TO.C,D11*%
X81844000Y-68166500D02*
X81844000Y-70851500D01*
X81844000Y-70851500D02*
X83764000Y-70851500D01*
X83764000Y-70851500D02*
X83764000Y-68166500D01*
%TO.C,D15*%
X73604000Y-70851500D02*
X73604000Y-68166500D01*
X71684000Y-70851500D02*
X73604000Y-70851500D01*
X71684000Y-68166500D02*
X71684000Y-70851500D01*
%TO.C,C4*%
X97082000Y-77446000D02*
X97067000Y-77446000D01*
X97082000Y-77446000D02*
X97082000Y-81986000D01*
X94957000Y-77446000D02*
X94942000Y-77446000D01*
X94942000Y-77446000D02*
X94942000Y-81986000D01*
X97082000Y-81986000D02*
X97067000Y-81986000D01*
X94957000Y-81986000D02*
X94942000Y-81986000D01*
%TO.C,U3*%
X97670000Y-74606000D02*
X97670000Y-84886000D01*
X97670000Y-84886000D02*
X123310000Y-84886000D01*
X97730000Y-77096000D02*
X97730000Y-82396000D01*
X97730000Y-82396000D02*
X123250000Y-82396000D01*
X123250000Y-77096000D02*
X97730000Y-77096000D01*
X123250000Y-78746000D02*
X123250000Y-77096000D01*
X123250000Y-82396000D02*
X123250000Y-80746000D01*
X123310000Y-74606000D02*
X97670000Y-74606000D01*
X123310000Y-84886000D02*
X123310000Y-74606000D01*
X123250000Y-80746000D02*
G75*
G02*
X123250000Y-78746000I0J1000000D01*
G01*
%TO.C,J4*%
X97730000Y-63938000D02*
X97730000Y-66598000D01*
X120650000Y-63938000D02*
X97730000Y-63938000D01*
X120650000Y-63938000D02*
X120650000Y-66598000D01*
X120650000Y-66598000D02*
X97730000Y-66598000D01*
X121920000Y-63938000D02*
X123250000Y-63938000D01*
X123250000Y-63938000D02*
X123250000Y-65268000D01*
%TO.C,R21*%
X109955000Y-94157436D02*
X109955000Y-94611564D01*
X108485000Y-94157436D02*
X108485000Y-94611564D01*
%TO.C,D9*%
X86924000Y-68166500D02*
X86924000Y-70851500D01*
X86924000Y-70851500D02*
X88844000Y-70851500D01*
X88844000Y-70851500D02*
X88844000Y-68166500D01*
%TO.C,D12*%
X79304000Y-68166500D02*
X79304000Y-70851500D01*
X79304000Y-70851500D02*
X81224000Y-70851500D01*
X81224000Y-70851500D02*
X81224000Y-68166500D01*
%TO.C,D4*%
X79304000Y-89746500D02*
X79304000Y-92431500D01*
X79304000Y-92431500D02*
X81224000Y-92431500D01*
X81224000Y-92431500D02*
X81224000Y-89746500D01*
%TO.C,R6*%
X75919000Y-94100436D02*
X75919000Y-94554564D01*
X74449000Y-94100436D02*
X74449000Y-94554564D01*
%TO.C,J5*%
X126686000Y-67250000D02*
X128016000Y-67250000D01*
X126686000Y-68580000D02*
X126686000Y-67250000D01*
X126686000Y-69850000D02*
X126686000Y-80070000D01*
X126686000Y-69850000D02*
X129346000Y-69850000D01*
X126686000Y-80070000D02*
X129346000Y-80070000D01*
X129346000Y-69850000D02*
X129346000Y-80070000D01*
%TO.C,R25*%
X120115000Y-72313436D02*
X120115000Y-72767564D01*
X118645000Y-72313436D02*
X118645000Y-72767564D01*
%TO.C,D3*%
X81844000Y-89746500D02*
X81844000Y-92431500D01*
X81844000Y-92431500D02*
X83764000Y-92431500D01*
X83764000Y-92431500D02*
X83764000Y-89746500D01*
%TO.C,R32*%
X102335000Y-72313436D02*
X102335000Y-72767564D01*
X100865000Y-72313436D02*
X100865000Y-72767564D01*
%TO.C,R8*%
X70839000Y-94100436D02*
X70839000Y-94554564D01*
X69369000Y-94100436D02*
X69369000Y-94554564D01*
%TO.C,D20*%
X110800000Y-92538500D02*
X112720000Y-92538500D01*
X112720000Y-92538500D02*
X112720000Y-89853500D01*
X110800000Y-89853500D02*
X110800000Y-92538500D01*
%TO.C,D10*%
X84384000Y-68166500D02*
X84384000Y-70851500D01*
X84384000Y-70851500D02*
X86304000Y-70851500D01*
X86304000Y-70851500D02*
X86304000Y-68166500D01*
%TO.C,J1*%
X66234000Y-85782000D02*
X66234000Y-88442000D01*
X89154000Y-85782000D02*
X66234000Y-85782000D01*
X89154000Y-85782000D02*
X89154000Y-88442000D01*
X89154000Y-88442000D02*
X66234000Y-88442000D01*
X90424000Y-85782000D02*
X91754000Y-85782000D01*
X91754000Y-85782000D02*
X91754000Y-87112000D01*
%TO.C,D32*%
X100640000Y-67902500D02*
X100640000Y-70587500D01*
X102560000Y-70587500D02*
X102560000Y-67902500D01*
X100640000Y-70587500D02*
X102560000Y-70587500D01*
%TO.C,R24*%
X102335000Y-94157436D02*
X102335000Y-94611564D01*
X100865000Y-94157436D02*
X100865000Y-94611564D01*
%TO.C,D31*%
X103180000Y-67902500D02*
X103180000Y-70587500D01*
X105100000Y-70587500D02*
X105100000Y-67902500D01*
X103180000Y-70587500D02*
X105100000Y-70587500D01*
%TO.C,R11*%
X83539000Y-72520436D02*
X83539000Y-72974564D01*
X82069000Y-72520436D02*
X82069000Y-72974564D01*
%TD*%
M02*
